<svg width="249" height="80" viewBox="0 0 249 80" fill="none" xmlns="http://www.w3.org/2000/svg">
<path d="M43.375 59.5019C41.4862 59.5019 39.955 61.0331 39.955 62.9219C39.955 64.8107 41.4862 66.3419 43.375 66.3419V62.9219V59.5019ZM108.625 66.3419H112.045V59.5019H108.625V62.9219V66.3419ZM76 40H72.58C72.58 57.9934 57.9934 72.58 40 72.58V76V79.42C61.7711 79.42 79.42 61.7711 79.42 40H76ZM40 76V72.58C22.0066 72.58 7.42 57.9934 7.42 40H4H0.58C0.58 61.7711 18.2289 79.42 40 79.42V76ZM4 40H7.42C7.42 22.0066 22.0066 7.42 40 7.42V4V0.58C18.2289 0.58 0.58 18.2289 0.58 40H4ZM40 4V7.42C57.9934 7.42 72.58 22.0066 72.58 40H76H79.42C79.42 18.2289 61.7711 0.58 40 0.58V4ZM43.375 62.9219V66.3419H108.625V62.9219V59.5019H43.375V62.9219Z" fill="url(#paint0_linear_369_5891)"/>
<path d="M96.8565 54.214C94.5342 54.214 92.4922 53.7468 90.7305 52.8126C88.9688 51.865 87.5941 50.537 86.6065 48.8287C85.6188 47.1204 85.125 45.1117 85.125 42.8028V24.8252L90.6504 24.7852V42.7628C90.6504 43.7104 90.8106 44.5712 91.1309 45.3453C91.4512 46.1194 91.8916 46.7867 92.4522 47.3472C93.0261 47.9078 93.6867 48.3416 94.4341 48.6485C95.1949 48.9421 96.0023 49.089 96.8565 49.089C97.7374 49.089 98.5515 48.9355 99.2989 48.6285C100.06 48.3215 100.72 47.8878 101.281 47.3272C101.841 46.7667 102.275 46.0994 102.582 45.3253C102.902 44.5512 103.063 43.697 103.063 42.7628V24.7852H108.588V42.8028C108.588 45.1117 108.094 47.1204 107.107 48.8287C106.119 50.537 104.744 51.865 102.982 52.8126C101.221 53.7468 99.1788 54.214 96.8565 54.214Z" fill="black"/>
<path d="M114.177 53.6134V24.7852H132.995V29.8701H119.622V36.0362H130.593V41.1212H119.622V48.5284H132.995V53.6134H114.177Z" fill="black"/>
<path d="M149.525 54.214C147.203 54.214 145.161 53.7468 143.399 52.8126C141.638 51.865 140.263 50.537 139.275 48.8287C138.288 47.1204 137.794 45.1117 137.794 42.8028V24.8252L143.319 24.7852V42.7628C143.319 43.7104 143.479 44.5712 143.8 45.3453C144.12 46.1194 144.56 46.7867 145.121 47.3472C145.695 47.9078 146.355 48.3416 147.103 48.6485C147.864 48.9421 148.671 49.089 149.525 49.089C150.406 49.089 151.22 48.9355 151.968 48.6285C152.728 48.3215 153.389 47.8878 153.95 47.3272C154.51 46.7667 154.944 46.0994 155.251 45.3253C155.571 44.5512 155.731 43.697 155.731 42.7628V24.7852H161.257V42.8028C161.257 45.1117 160.763 47.1204 159.775 48.8287C158.788 50.537 157.413 51.865 155.651 52.8126C153.89 53.7468 151.848 54.214 149.525 54.214Z" fill="black"/>
<path d="M166.846 53.6134V24.7852H185.664V29.8701H172.291V36.0362H183.262V41.1212H172.291V48.5284H185.664V53.6134H166.846Z" fill="black"/>
<path d="M191.343 53.6134V48.1681H196.789V53.6134H191.343Z" fill="black"/>
<path d="M203.688 53.6134V24.7852H209.133V48.5284H221.545V53.6134H203.688Z" fill="black"/>
<path d="M224.949 53.6134V24.7852H230.395V38.0782L241.365 24.7852H248.012L235.96 38.9991L248.773 53.6134H241.886L230.395 40.4805V53.6134H224.949Z" fill="black"/>
<defs>
<linearGradient id="paint0_linear_369_5891" x1="0.906251" y1="33.9531" x2="111.508" y2="62.9922" gradientUnits="userSpaceOnUse">
<stop stop-color="#EBB517"/>
<stop offset="0.5" stop-color="#D69D00"/>
<stop offset="1" stop-color="#EAAF00"/>
</linearGradient>
</defs>
</svg>
