<svg width="240" height="325" viewBox="0 0 240 325" fill="none" xmlns="http://www.w3.org/2000/svg">
<path fill-rule="evenodd" clip-rule="evenodd" d="M181.079 177.097C179.238 169.953 177.544 166.925 174.273 164.442C171.213 162.119 166.747 160.169 160.23 158.744C153.442 157.557 153.249 154.028 151.547 148.357C151.051 146.652 148.59 146.198 147.528 147.427C147.379 147.265 147.222 147.117 147.061 146.984C147.205 146.171 146.022 143.84 146.061 143.062C146.474 134.944 143.819 130.867 137.193 129.351C135.752 129.022 125.963 128.827 124.558 129.216C118.415 130.915 112.368 136.308 113.293 142.805C111.365 145.326 109.478 146.864 106.503 147.676C99.8828 148.517 93.2631 149.264 86.641 149.904C73.6784 151.938 61.5249 158.8 53.2182 168.809C52.4521 169.733 52.2307 170.987 52.9069 171.972C52.3772 174.241 49.3956 179.746 51.7417 181.301C47.8837 190.53 39.0072 208.368 38.9905 213.464C38.9205 234.873 41.2327 262.74 62.3546 274.587C63.2003 275.419 63.3212 276.339 63.6874 277.576C64.616 281.474 67.9885 284.259 71.6798 284.032C89.8636 284.436 107.476 282.217 125.66 282.11C133.679 282.062 143.323 283.26 150.29 284.057C157.256 284.855 164.288 284.149 170.973 282.11C171.537 282.997 172.677 283.515 173.833 283.26C180.763 281.882 186.368 277.611 191.249 272.942C192.74 270.228 198.566 262.495 196.25 259.803C198.349 250.928 198.24 241.392 194.51 232.941C195.039 231.392 194.075 229.689 194.51 228.089C194.825 226.932 195.631 226.453 196.037 225.306C196.608 223.693 195.987 221.529 195.344 219.883C195.081 219.063 195.829 218.18 196.037 217.342C197.023 213.394 194.765 213.742 193.136 211.102C193.161 211.094 193.584 209.209 193.582 209.219C193.831 207.873 193.207 206.15 192.662 205.027C192.294 204.268 191.505 203.793 190.721 203.88C191.51 201.199 192.509 198.969 193.582 196.387C195.481 191.836 197.884 187.477 200.61 183.357C201.726 181.67 200.227 179.716 198.42 179.601C192.573 179.229 186.789 178.387 181.079 177.097Z" fill="white"/>
<path fill-rule="evenodd" clip-rule="evenodd" d="M164.013 211.517C161.675 210.6 159.156 210.093 156.625 209.896C157.988 209.658 159.355 209.427 160.732 209.309C161.694 209.226 162.585 209.235 163.308 209.964C163.789 210.45 164.015 211.076 164.332 211.651C164.229 211.604 164.121 211.56 164.013 211.517ZM189.116 202.941C185.286 203.135 181.451 204.046 177.987 205.697C176.569 206.373 175.284 207.35 174.908 208.956C174.718 209.776 174.765 210.624 174.866 211.452C174.942 212.08 174.961 212.881 175.506 213.305C175.599 213.377 175.699 213.432 175.802 213.472C174.524 214.049 173.307 214.743 172.225 215.457C171.237 216.11 170.22 217.116 169.764 218.251C169.726 218.122 169.688 218.002 169.65 217.888C168.873 215.588 167.675 213.705 165.788 212.439C166.122 212.289 166.352 211.934 166.244 211.444C165.796 209.395 163.905 207.616 161.77 207.743C159.431 207.88 156.919 208.732 154.804 209.808C154.033 209.791 153.264 209.801 152.503 209.835C152.373 209.839 152.379 210.017 152.503 210.032C153.12 210.11 153.737 210.196 154.354 210.298C155.82 210.533 157.282 210.831 158.712 211.2C160.428 211.644 162.203 212.09 163.806 212.866C166.916 214.373 168.841 218.313 168.446 221.74C168.38 222.303 168.163 224.002 167.383 223.826C166.724 223.678 166.462 222.303 166.232 221.793C165.615 220.441 164.503 219.557 163.17 218.959C161.605 218.255 159.93 217.78 158.307 217.226C157.388 216.911 156.469 216.596 155.548 216.283C154.606 215.96 153.71 215.514 152.706 215.74C152.1 215.878 152.03 216.6 152.37 217.015C152.888 217.647 153.657 217.833 154.403 218.093C155.387 218.435 156.37 218.777 157.352 219.12C158.871 219.648 160.462 220.094 161.943 220.741L161.896 220.846C161.776 220.813 161.634 220.933 161.658 221.081C161.88 222.448 162.188 224.029 161.846 225.399C161.575 226.485 160.622 227.688 159.384 227.369C159.579 227.191 159.651 226.885 159.52 226.601C159.029 225.553 152.607 221.415 152.034 222.952C152.015 223.006 152.074 223.047 152.121 223.038C152.609 222.937 153.427 223.769 153.817 224.034C154.381 224.414 154.954 224.786 155.512 225.177C156.123 225.604 156.718 226.052 157.299 226.515C157.756 226.879 158.1 227.257 158.624 227.441C158.349 227.572 158.131 227.815 158.039 228.125C157.802 228.935 157.346 229.622 156.553 229.979C155.723 230.351 154.787 230.116 153.913 230.207C152.721 230.328 151.682 230.894 150.813 231.704C148.99 233.407 148.075 236.408 145.525 237.213C144.002 237.693 142.312 237.391 140.77 237.173C139.048 236.93 137.37 236.738 135.636 236.991C133.975 237.235 132.406 237.809 130.889 238.511C129.467 239.168 127.895 239.913 126.634 240.893C126.374 240.092 126.112 239.299 125.913 238.481C125.444 236.548 125.191 234.578 125.129 232.591C125.073 230.7 125.178 228.8 125.341 226.916C125.421 225.976 125.548 225.04 125.628 224.099C125.649 223.862 125.692 223.609 125.723 223.355C127.975 222.026 130.341 221.007 132.727 219.959C132.733 219.957 132.739 219.952 132.746 219.95C132.82 219.916 132.892 219.885 132.965 219.853C132.963 219.849 132.961 219.845 132.957 219.84C133.23 219.674 133.42 219.451 133.534 219.202C136.971 216.922 139.844 213.809 141.987 210.177C142.884 208.656 143.749 207.077 144.923 205.744C146.174 204.321 147.659 203.476 149.497 203.036C151.646 202.52 153.86 202.212 156.061 202.036C157.263 201.941 158.607 201.793 159.917 201.8C160.83 201.806 161.723 201.884 162.543 202.11C163.758 202.444 164.468 203.368 165.23 204.302C165.959 205.198 166.684 206.096 167.364 207.031C168.008 207.916 168.617 208.831 169.145 209.791C169.462 210.366 169.756 210.958 170.003 211.568C170.089 211.784 170.203 212.029 170.256 212.253C170.309 212.479 170.212 212.718 170.465 212.718C169.42 212.733 169.43 214.404 170.47 214.343C174.539 214.106 168.71 206.16 167.858 205.052C166.652 203.484 165.408 201.438 163.477 200.709C163.449 200.698 163.42 200.688 163.392 200.679C163.954 200.147 164.398 199.509 164.823 198.86C165.26 198.192 165.781 197.427 165.925 196.634C166.016 196.129 165.389 195.842 165.091 196.283C164.658 196.928 164.449 197.744 164.125 198.452C163.796 199.17 163.394 199.849 163.077 200.574C162.315 200.339 161.491 200.232 160.652 200.196C161.711 198.763 163.519 195.998 163.737 195.643C164.738 193.999 165.691 192.304 166.601 190.606C167.586 188.768 168.429 186.853 169.371 184.993C169.906 183.939 170.444 182.875 171.038 181.852C171.243 181.501 171.463 181.151 171.712 180.831C171.761 180.768 171.822 180.715 171.879 180.656C171.944 180.62 172.012 180.58 172.05 180.559C172.392 180.362 172.513 179.906 172.753 179.616C173.138 179.149 173.59 179.094 174.169 179.088C175.403 179.075 176.641 179.124 177.873 179.158C179.683 179.208 181.492 179.28 183.3 179.375C183.847 179.405 184.392 179.434 184.939 179.468C187.57 179.625 190.198 179.83 192.82 180.081C195.139 180.303 197.459 180.665 199.781 180.838C196.637 188.309 193.151 195.645 189.205 202.725C189.165 202.797 189.135 202.869 189.116 202.941ZM171.674 222.188C171.167 222.421 170.675 222.711 170.216 223.04C170.292 222.527 170.311 221.986 170.29 221.442C170.668 221.848 171.152 222.081 171.674 222.188ZM193.318 209.336C193.282 209.34 193.249 209.36 193.232 209.395C192.53 210.843 192.824 212.46 193.969 213.595C194.569 214.187 195.877 214.855 195.834 215.827C195.798 216.613 194.943 217.272 194.577 217.921C194.237 218.526 194.111 219.189 194.383 219.845C194.732 220.684 195.706 221.018 196.039 221.842C196.462 222.888 195.775 224.15 195.294 225.061C194.846 225.904 194.267 226.747 193.882 227.639C191.307 228.973 189.002 231.019 187.02 233.096C184.851 235.368 182.989 238.042 179.544 237.974C179.199 237.968 178.937 238.15 178.781 238.401C177.822 238.446 176.861 238.465 175.901 238.469C174.215 238.477 172.53 238.46 170.846 238.408C170.727 238 170.814 237.446 170.808 237.101C170.787 235.992 170.776 234.884 170.73 233.775C170.717 233.466 170.704 233.155 170.692 232.847C171.298 233.944 172.481 234.443 173.829 234.366C175.996 234.24 178.177 233.885 180.323 233.565C181.454 233.399 182.582 233.208 183.708 233.005C184.633 232.841 185.939 232.883 186.585 232.141C186.737 231.968 186.746 231.651 186.507 231.534C185.867 231.219 185.463 231.395 184.76 231.53C183.902 231.697 183.042 231.856 182.18 232.004C180.526 232.291 178.868 232.557 177.205 232.792C176.258 232.925 175.31 233.056 174.361 233.16C173.533 233.248 172.599 233.369 171.932 232.746C170.586 231.486 171.34 229.374 172.192 228.102C172.208 228.077 172.208 228.053 172.202 228.032C173.005 227.844 173.806 227.624 174.604 227.47C176.14 227.174 177.687 226.925 179.235 226.703C182.417 226.249 185.62 225.948 188.818 225.646C189.61 225.57 189.619 224.323 188.818 224.397C184.223 224.818 179.605 225.217 175.071 226.103C173.934 226.322 172.806 226.572 171.684 226.853C171.154 226.984 170.586 227.189 170.03 227.196C169.996 227.196 169.962 227.196 169.929 227.193C168.841 227.16 168.682 226.228 169.28 225.452C169.354 225.357 169.43 225.262 169.508 225.171C170.565 223.911 171.881 223.07 173.237 222.199C174.756 221.992 176.271 221.531 177.758 221.193C181.43 220.356 185.102 219.519 188.776 218.684C189.496 218.519 189.19 217.412 188.47 217.575C185.681 218.207 182.892 218.839 180.103 219.471L176.022 220.396C175.206 220.58 174.188 220.95 173.229 221.083C172.756 221.149 172.297 221.157 171.883 221.06C170.546 220.743 170.478 219.071 171.055 218.078C171.701 216.962 172.923 216.264 174.006 215.632C175.884 214.535 177.883 213.747 179.835 212.838C180.182 212.762 180.528 212.686 180.875 212.61C182.89 212.166 185.193 211.949 187.09 211.135C187.658 210.894 187.348 209.998 186.786 210.01C185.313 210.042 183.773 210.566 182.334 210.877C180.777 211.215 179.218 211.551 177.661 211.887C177.505 211.921 176.58 212.217 176.44 212.151C176.351 212.109 176.32 211.801 176.29 211.598C176.195 210.93 176.125 210.228 176.229 209.558C176.457 208.055 177.71 207.35 178.977 206.773C181.8 205.49 184.895 204.687 187.975 204.365C188.685 204.291 189.395 204.245 190.109 204.222C190.948 204.196 191.639 204.048 192.063 204.875C192.731 206.177 193.099 207.851 193.318 209.336ZM189.398 256.54C188.783 254.412 188.951 252.14 188.529 249.97C188.312 248.85 188.015 247.739 187.691 246.646C187.43 245.763 186.993 244.824 186.944 243.903C186.941 243.841 187.013 243.806 187.063 243.834C187.931 244.331 188.597 245.406 189.092 246.249C189.684 247.258 190.137 248.315 190.502 249.426C191.229 251.64 191.826 254.309 190.888 256.54C190.609 257.204 189.629 257.337 189.398 256.54ZM170.392 228.356C170.911 228.305 171.431 228.206 171.951 228.089C171.37 228.656 170.833 229.338 170.535 230.095C170.489 229.514 170.429 228.935 170.351 228.358C170.364 228.358 170.379 228.358 170.392 228.356ZM165.397 272.649C164.48 272.009 163.812 271.114 163.035 270.325C162.271 269.549 163.466 268.353 164.23 269.13C164.893 269.803 165.469 270.644 166.25 271.189C166.625 271.45 166.799 271.924 166.553 272.345C166.335 272.717 165.771 272.91 165.397 272.649ZM160.286 248.059C161.959 247.335 163.604 246.547 165.355 246.026C166.402 245.714 166.845 247.346 165.804 247.656C164.192 248.136 162.679 248.852 161.139 249.518C160.15 249.946 159.29 248.489 160.286 248.059ZM142.617 247.552C142.208 246.542 143.844 246.107 144.247 247.103C144.711 248.249 145.243 249.365 145.707 250.511C146.116 251.521 144.481 251.957 144.078 250.961C143.614 249.815 143.081 248.698 142.617 247.552ZM125.178 267.719C124.906 268.083 124.451 268.28 124.022 268.023C123.663 267.807 123.443 267.234 123.719 266.866C124.524 265.792 125.341 264.731 126.285 263.773C127.05 262.997 128.245 264.193 127.48 264.969C126.637 265.824 125.898 266.76 125.178 267.719ZM122.685 154.564C123.461 155.094 124.14 155.738 124.803 156.401C125.573 157.171 124.378 158.366 123.608 157.596C123.049 157.038 122.486 156.471 121.832 156.024C121.454 155.766 121.284 155.285 121.528 154.867C121.748 154.493 122.308 154.307 122.685 154.564ZM148.056 181.773C147.618 182.651 147.223 183.512 147.198 184.511C147.171 185.599 145.481 185.6 145.508 184.511C145.54 183.204 146.022 182.071 146.597 180.919C147.083 179.944 148.54 180.802 148.056 181.773ZM157.365 159.92C158.274 159.315 159.119 160.78 158.218 161.38C157.488 161.867 156.758 162.354 156.028 162.841C155.119 163.447 154.274 161.982 155.175 161.381C155.905 160.894 156.635 160.407 157.365 159.92ZM116.989 198.127C116.833 199.201 115.205 198.742 115.359 197.678C115.596 196.033 115.886 194.41 116.332 192.808C116.624 191.76 118.254 192.208 117.962 193.257C117.516 194.859 117.226 196.482 116.989 198.127ZM111.063 217.495C109.975 217.472 109.975 215.781 111.063 215.804C112.047 215.825 113.015 216.084 113.965 216.321C115.021 216.585 114.571 218.216 113.515 217.952C112.713 217.751 111.895 217.513 111.063 217.495ZM108.875 256.51C108.502 256.692 108.118 256.856 107.74 257.029C106.984 257.375 106.228 257.721 105.472 258.069C103.897 258.792 102.323 259.517 100.751 260.245C97.6026 261.703 94.4305 263.109 91.275 264.551C88.0572 266.022 84.8478 267.512 81.6424 269.01C80.1323 269.715 78.6107 270.394 77.0922 271.081C75.7937 271.669 74.1887 272.695 72.7633 272.791C72.69 272.797 72.6655 272.704 72.7073 272.656C73.2458 272.043 74.1048 271.687 74.8126 271.289C75.5355 270.882 76.272 270.499 77.0051 270.111C78.5334 269.301 80.0636 268.497 81.6067 267.716C84.6934 266.153 87.7859 264.602 90.8791 263.052C94.0337 261.472 97.1843 259.881 100.367 258.357C101.865 257.64 103.365 256.924 104.865 256.211C105.678 255.824 106.492 255.439 107.305 255.054C107.656 254.887 108.004 254.708 108.363 254.559C108.841 254.361 109.203 254.402 109.696 254.28C110.498 254.082 110.846 255.103 110.23 255.548C109.722 255.914 109.455 256.227 108.875 256.51ZM97.5921 273.848C97.4186 273.426 97.7818 272.913 98.1824 272.808C98.6622 272.681 99.0469 272.973 99.222 273.398C99.6853 274.526 100.345 275.56 101.195 276.434C101.954 277.215 100.76 278.411 99.9997 277.629C98.9351 276.534 98.1703 275.254 97.5921 273.848ZM89.2912 246.708C88.5207 245.937 89.716 244.742 90.4863 245.512L92.6767 247.704C93.4472 248.474 92.2517 249.67 91.4816 248.899L89.2912 246.708ZM66.8186 243.135C65.2438 243.597 63.4071 244.022 62.3334 245.366C62.281 245.432 62.1929 245.348 62.2244 245.282C63.5989 242.431 67.5407 241.431 70.2699 240.433C72.2003 239.726 74.1809 239.14 76.1782 238.617C75.9786 236.338 76.5291 233.895 76.7205 231.627C76.9248 229.205 77.0911 226.777 77.1764 224.348C77.2637 221.87 77.2848 219.375 77.2033 216.896C77.1222 214.426 76.8017 211.987 76.6614 209.526C76.6479 209.288 76.9791 209.276 77.0505 209.473C77.88 211.757 78.2343 214.287 78.5043 216.695C78.7823 219.177 78.8746 221.65 78.8391 224.146C78.8024 226.712 78.6532 229.271 78.4485 231.829C78.3515 233.041 78.2389 234.252 78.1326 235.463C78.0515 236.388 78.0139 237.305 77.8255 238.2C79.0301 237.904 80.2375 237.624 81.4411 237.352C85.279 236.486 89.1329 235.682 92.9548 234.745C94.8308 234.285 96.68 233.735 98.5476 233.245C100.306 232.785 102.162 232.227 103.968 232.021C104.612 231.948 104.694 232.829 104.268 233.129C102.8 234.159 100.851 234.877 99.1563 235.454C97.4552 236.033 95.6869 236.45 93.9433 236.878C90.3072 237.773 86.6366 238.505 82.9715 239.266C79.3115 240.027 75.6445 240.783 72.0257 241.722C70.283 242.174 68.5462 242.628 66.8186 243.135ZM58.189 197.902C57.248 198.454 56.3985 196.992 57.3361 196.442C58.5629 195.721 59.8705 195.18 61.1886 194.652C62.2001 194.247 62.6353 195.883 61.6379 196.283C60.4533 196.757 59.2914 197.254 58.189 197.902ZM54.7817 260.718C53.8381 261.265 52.988 259.804 53.9288 259.258C55.25 258.492 56.697 257.981 58.0662 257.31C59.0404 256.833 59.896 258.292 58.9191 258.77C57.5501 259.441 56.1029 259.952 54.7817 260.718ZM53.2491 225.061C54.1614 225.927 55.3789 226.336 56.5269 226.791C57.5279 227.188 57.0889 228.822 56.0776 228.421C54.6473 227.854 53.1904 227.336 52.054 226.256C51.2634 225.505 52.4607 224.311 53.2491 225.061ZM63.3416 176.635C64.3445 177.028 63.9052 178.663 62.8922 178.265C61.7687 177.825 60.6084 177.489 59.4849 177.048C58.4822 176.655 58.9212 175.02 59.9343 175.418C61.0578 175.858 62.2181 176.194 63.3416 176.635ZM81.1457 157.4C82.2114 157.221 82.6652 158.85 81.5951 159.031C80.2675 159.255 78.9602 159.517 77.701 160.005C76.6842 160.398 76.2479 158.763 77.2517 158.374C78.511 157.887 79.8183 157.625 81.1457 157.4ZM87.0285 204.232C86.0514 203.751 86.9087 202.294 87.8814 202.772C88.9064 203.276 89.9685 203.666 91.0869 203.904C92.1519 204.131 91.6984 205.761 90.6376 205.535C89.3788 205.266 88.1812 204.799 87.0285 204.232ZM92.5846 177.852C93.6367 177.564 94.0817 179.195 93.034 179.483C91.1907 179.988 89.2929 180.251 87.436 180.7C86.3778 180.956 85.9301 179.326 86.9867 179.07C88.8435 178.62 90.7415 178.358 92.5846 177.852ZM116.155 169.574C117.225 169.772 116.769 171.401 115.706 171.205C114.574 170.995 113.427 170.992 112.28 170.991C111.19 170.991 111.192 169.3 112.28 169.3C113.583 169.301 114.87 169.336 116.155 169.574ZM193.027 178.407C190.265 178.143 187.5 177.932 184.73 177.773C184.601 177.767 184.475 177.759 184.346 177.752C184.331 177.723 184.312 177.695 184.293 177.665C183.389 176.338 182.723 175.011 182.146 173.51C181.595 172.082 181.061 170.609 180.211 169.319C179.243 167.851 177.935 166.701 176.502 165.705C175.632 166.29 174.825 166.975 174.087 167.7C173.31 168.464 172.115 167.269 172.892 166.505C173.548 165.86 174.248 165.264 174.988 164.726C174.134 164.206 173.262 163.718 172.411 163.232C169.223 161.413 165.959 159.73 162.627 158.192C161.079 157.475 159.511 156.839 157.933 156.194C157.084 155.848 156.245 155.402 155.396 155C155.457 154.4 155.277 153.728 154.817 153.333C154.477 153.043 154.213 152.935 153.807 152.731C153.716 152.699 153.661 152.68 153.636 152.669C153.655 152.673 153.71 152.69 153.8 152.72C154.016 152.819 154.033 152.79 153.851 152.633C153.841 152.291 153.167 151.568 153.013 151.215C152.476 150.004 152.309 148.723 151.517 147.62C150.425 146.1 148.591 145.526 146.881 146.041C146.704 144.213 146.658 142.305 145.969 140.673C145.95 140.629 145.889 140.609 145.861 140.658C145.143 141.882 145.082 143.245 145.027 144.657C144.974 145.982 145.024 147.337 145.198 148.653C145.088 148.738 144.976 148.818 144.86 148.896C144.315 149.256 143.727 149.533 143.111 149.738C141.936 150.126 140.704 150.296 139.473 150.355C136.293 150.507 133.016 150.186 129.889 149.64C126.727 149.089 121.878 148.26 119.064 146.677C117.207 145.633 115.494 144.359 113.757 143.124C114.387 141.095 114.547 138.914 113.913 137.2C113.837 136.995 113.516 136.957 113.455 137.2C113.058 138.836 112.942 140.48 112.413 142.097C112.405 142.121 112.396 142.146 112.388 142.169C112.223 142.057 112.058 141.947 111.894 141.837C111.513 141.586 110.996 141.774 110.768 142.133C107.119 147.884 101.341 148.214 95.2732 149.241C88.6329 150.365 81.9591 151.578 75.5746 153.779C69.469 155.884 63.6338 158.948 59.0112 163.526C57.9648 164.563 56.9862 165.667 56.0626 166.82C56.9562 166.933 57.8425 167.108 58.7174 167.383C59.7532 167.709 59.3081 169.34 58.268 169.013C57.1436 168.66 56.0068 168.485 54.8584 168.398C51.7174 172.697 49.2684 177.571 47.1507 182.368C43.0886 191.566 40.4446 201.362 39.2279 211.335C39.896 210.934 40.576 210.553 41.273 210.198C42.2414 209.705 43.0956 211.164 42.1261 211.658C41.0495 212.206 40.0037 212.81 38.9905 213.464C38.5479 217.83 38.3763 222.223 38.4802 226.61C38.7274 237.068 40.1387 247.832 43.331 257.809C44.8964 262.706 46.9711 267.563 50.0619 271.702C51.4605 273.576 53.0493 275.267 54.9211 276.677C55.8274 277.361 56.7866 277.972 57.7986 278.488C59.1021 279.156 60.8007 279.376 61.9246 280.32C62.2943 280.631 62.5795 281.041 62.795 281.504C62.6704 282.383 62.6556 283.264 62.8964 284.144C62.9725 284.419 63.1795 284.642 63.4352 284.75C63.4394 284.826 63.4394 284.9 63.4394 284.972C63.4394 285.006 63.4901 285.014 63.4964 284.981C63.507 284.915 63.5176 284.85 63.5281 284.782C63.6105 284.809 63.6972 284.822 63.7859 284.822C66.995 284.834 70.2082 284.756 73.4216 284.647C73.1731 283.886 72.904 283.131 72.6456 282.369C72.2947 281.335 73.9276 280.895 74.2753 281.92C74.5776 282.81 74.8937 283.692 75.1749 284.586C78.6179 284.458 82.0599 284.304 85.4957 284.19C92.8035 283.947 100.109 283.867 107.419 283.713C118.77 283.472 130.205 282.979 141.574 283.461C141.967 282.626 142.407 281.811 142.824 280.987C143.317 280.016 144.774 280.872 144.284 281.841C143.994 282.413 143.693 282.978 143.408 283.549C145.71 283.669 148.011 283.827 150.306 284.042C154.223 284.41 158.102 285.063 162.015 285.469C165.993 285.883 169.884 285.809 173.831 285.152C174.541 285.034 174.959 284.604 175.132 284.072C175.139 284.07 175.143 284.066 175.147 284.059C175.35 283.822 175.54 283.626 175.736 283.455C175.971 283.303 176.225 283.174 176.523 283.059C177.078 282.848 177.657 282.719 178.244 282.633C178.891 282.536 179.546 282.527 180.192 282.447C180.737 282.377 181.27 282.273 181.802 282.147C182.759 281.918 183.668 281.62 184.572 281.225C185.36 280.881 186.072 280.386 186.744 279.847C188.134 278.83 189.338 277.533 190.39 276.184C191.003 275.396 191.58 274.578 192.104 273.726C193.016 272.251 193.794 270.719 194.58 269.174C194.865 268.716 195.125 268.247 195.363 267.768C193.827 267.316 192.276 266.947 190.648 266.921C189.56 266.903 189.56 265.212 190.648 265.23C192.515 265.26 194.282 265.696 196.037 266.216C196.122 265.989 196.204 265.76 196.28 265.528C196.489 265.044 196.663 264.547 196.806 264.044C196.891 263.816 196.975 263.588 197.06 263.36C197.25 262.569 197.44 261.777 197.632 260.984C198.015 259.716 198.317 258.429 198.539 257.125C198.725 256.267 198.868 255.402 198.965 254.527C199.261 252.407 199.502 250.292 199.519 248.149C199.494 246.828 199.409 245.509 199.265 244.196C199.204 243.304 199.101 242.417 198.961 241.535C198.78 240.225 198.6 238.928 198.298 237.634C198.072 236.759 197.846 235.884 197.62 235.009C197.056 233.185 196.39 231.397 195.623 229.649C195.581 229.539 195.367 229.298 195.239 229.296C195.142 229.294 195.006 229.383 195.05 229.501C195.055 229.512 195.059 229.524 195.063 229.535C195.019 229.436 194.977 229.334 194.932 229.235C194.894 229.142 194.746 228.956 194.632 228.958C194.626 228.958 194.619 228.958 194.611 228.96C194.641 228.939 194.668 228.912 194.696 228.88C195.454 227.982 195.946 226.8 196.489 225.76C196.939 224.902 197.364 223.998 197.487 223.028C197.594 222.176 197.449 221.337 196.914 220.648C196.306 219.864 195.161 219.496 195.796 218.363C196.519 217.074 197.582 215.956 196.523 214.491C195.984 213.745 195.131 213.335 194.497 212.686C193.768 211.936 193.422 210.932 193.441 209.907C193.485 209.932 193.544 209.92 193.565 209.856C194.178 208.005 193.734 205.972 193.107 204.169C192.765 203.19 192.04 202.922 191.197 202.873C194.848 195.74 198.264 188.493 201.308 181.079C201.41 180.836 201.509 180.593 201.608 180.35C201.756 179.986 201.444 179.502 201.082 179.422C198.45 178.845 195.708 178.661 193.027 178.407Z" fill="black"/>
<path fill-rule="evenodd" clip-rule="evenodd" d="M119.872 56.0157C151.894 54.4403 154.131 63.751 158.528 69.6868C160.71 72.6326 166.344 76.9952 167.279 87.0694C167.928 94.0624 163.797 102.123 163.797 108.372C163.797 111.561 167.701 118.409 165.884 123.058C161.839 133.406 153.274 144.889 142.36 144.889C131.446 144.889 111.299 138.872 99.2392 121.598C95.2891 115.94 87.8505 57.591 119.872 56.0157Z" fill="white"/>
<path fill-rule="evenodd" clip-rule="evenodd" d="M166.481 108.996C165.782 108.224 165.239 107.59 165.057 106.529C164.981 106.087 164.947 105.633 164.932 105.176C167.74 101.25 170.47 91.9741 170.47 86.9008C170.469 79.7434 167.831 72.8568 163.5 67.1609C155.058 56.0669 141.004 50.3795 127.251 50.8256C114.08 51.2502 100.071 56.1071 91.8556 66.489C64.597 100.934 87.4748 138.558 104.231 146.385C105.689 147.067 110.4 146.83 109.744 145.375C107.859 141.195 106.373 133.495 106.027 131.762C106.563 132.124 107.104 132.477 107.647 132.842C108.608 133.487 109.897 134.224 111.105 134.011C111.163 134 111.198 133.939 111.201 133.886C111.255 132.751 110.444 131.584 109.73 130.775C108.739 129.651 107.797 128.499 106.73 127.444C106.276 126.994 105.815 126.548 105.355 126.102C105.296 123.426 105.475 120.738 105.955 118.048C106.785 113.383 108.217 108.839 109.863 104.367C111.239 103.352 112.574 102.285 113.81 101.118C116.786 98.3095 119.058 94.8732 121.005 91.2591C121.029 91.2483 121.054 91.2356 121.077 91.2253C124.853 89.4687 128.596 87.645 132.31 85.764C134.227 84.7937 136.13 83.8003 138.034 82.8072C139.069 82.2659 140.136 81.7735 141.194 81.2641C140.909 82.7266 140.525 84.1681 140.058 85.5862C139.673 86.751 140.848 87.6109 141.887 87.4186C145.426 86.7636 148.846 85.4469 151.925 83.5828C153.45 82.6592 154.901 81.5919 156.247 80.4208C157.593 82.4265 159.228 84.3075 160.878 85.9267C161.991 87.0194 163.155 88.059 164.364 89.0441C163.817 92.8125 163.348 96.5891 162.754 100.349C162.444 102.315 162.07 104.28 161.835 106.256C161.579 108.41 162.291 109.944 163.709 111.519C165.691 113.719 165.689 116.902 164.93 119.635C164.837 119.973 164.721 120.303 164.601 120.63C164.575 120.698 164.501 120.882 164.474 120.954C164.474 120.956 164.474 120.958 164.472 120.962C164.472 120.964 164.47 120.966 164.47 120.968C164.467 120.968 164.467 120.97 164.465 120.973V120.977V120.979L164.463 120.981C164.375 121.188 164.279 121.391 164.184 121.594C163.751 122.509 163.267 123.403 162.765 124.283C160.293 128.623 157.17 132.595 153.613 136.099C151.956 137.731 150.234 139.248 148.289 140.491C147.879 140.751 147.46 141.002 147.032 141.233C146.801 141.357 146.565 141.474 146.328 141.592C145.982 141.763 146.125 141.695 145.914 141.78C145.532 141.93 145.141 142.061 144.741 142.165C144.528 142.22 144.313 142.266 144.095 142.306C144.093 142.306 144.089 142.308 144.082 142.308C144.08 142.308 144.078 142.311 144.076 142.308C144.074 142.311 144.07 142.311 144.065 142.311C143.985 142.317 143.841 142.33 143.814 142.33C140.78 142.34 137.772 141.932 134.835 141.178C133.244 140.768 131.655 140.271 130.16 139.589C129.399 139.24 128.655 138.853 127.944 138.415C127.625 138.219 127.322 137.982 126.986 137.811C126.484 137.553 125.991 137.581 125.448 137.557C124.62 137.523 124.033 138.39 124.236 139.151C124.483 140.079 124.872 140.626 125.67 141.178C126.308 141.617 126.984 142.006 127.673 142.359C129.173 143.131 130.76 143.758 132.365 144.272C135.372 145.231 138.536 145.821 141.684 146.037C143.977 146.193 145.963 145.887 148.05 144.921C150.253 143.9 152.229 142.376 154.056 140.795C158.148 137.257 161.708 132.965 164.727 128.486C167.565 124.276 169.766 119.692 169.041 114.465C168.752 112.369 167.898 110.564 166.481 108.996" fill="black"/>
<path fill-rule="evenodd" clip-rule="evenodd" d="M143.152 128.774C141.732 128.195 140.465 127.228 139.538 125.993C139.216 125.563 139.133 125.11 139.2 124.695C139.276 124.229 139.552 123.806 139.928 123.523C140.305 123.239 140.777 123.098 141.233 123.17C141.63 123.232 142.024 123.449 142.337 123.899L142.402 123.989C142.953 124.735 143.67 125.346 144.488 125.741C145.276 126.121 146.158 126.298 147.07 126.195C148.808 125.999 150.005 125.059 151.278 123.782C151.436 123.621 151.594 123.455 151.752 123.286C151.852 123.133 151.991 123.034 152.146 122.983C152.317 122.925 152.511 122.929 152.689 122.991C152.86 123.05 153.013 123.164 153.116 123.315C153.213 123.458 153.269 123.635 153.251 123.839C153.134 125.161 152.443 126.342 151.461 127.269C150.37 128.299 148.924 129.011 147.563 129.261C146.064 129.536 144.536 129.339 143.152 128.774V128.774ZM148.271 108.366C149.866 109.336 152.297 111.598 150.581 114.003C148.56 116.124 145.652 113.693 144.218 112.593C142.889 111.741 141.396 113.933 142.629 114.928C152.986 122.599 157.19 108.62 149.077 107.226C148.184 107.072 147.853 108.066 148.271 108.366ZM129.711 99.4429C129.887 97.2541 133.219 96.757 133.551 98.923C133.847 100.863 133.498 102.645 132.624 104.392C131.79 106.061 129.692 105.283 129.533 103.763C129.32 101.726 129.601 100.804 129.711 99.4429ZM155.076 98.4739C155.541 97.8652 156.211 97.4497 157.015 97.6845C159.526 98.4185 158.786 101.985 157.904 103.72C157.425 104.663 155.876 104.902 155.176 104.072C154.035 102.719 153.489 100.016 154.939 98.6825C154.979 98.6136 155.022 98.544 155.076 98.4739ZM132.589 89.8654L132.986 89.7959C134.213 89.5836 135.738 89.3796 136.606 90.3665C137.067 90.8898 137.225 91.8624 136.606 92.3633C135.518 93.2446 134.314 92.9031 133.01 92.9777C131.935 93.0394 130.902 93.2174 129.867 93.5135C127.595 94.1629 125.744 95.3486 123.804 96.6505C123.549 96.8213 123.29 96.4956 123.411 96.2574C124.531 94.063 126.701 92.2604 128.875 91.1616C130.036 90.5751 131.305 90.0885 132.589 89.8654ZM152.787 88.8823L153.091 88.9445C156.394 89.6353 160.687 91.0153 162.251 94.2615C162.311 94.7205 162.248 94.8189 162.196 94.8832L162.179 94.9046C162.137 94.9595 162.104 95.0351 161.905 95.0976C161.849 95.0844 161.794 95.0705 161.737 95.0557C161.02 94.8677 160.453 94.6087 159.904 94.34L159.308 94.0465C158.617 93.7076 157.92 93.381 157.181 93.1399C155.605 92.6255 153.983 92.2631 152.337 92.0696C151.98 92.0277 151.636 91.9072 151.365 91.7006C151.107 91.5046 150.911 91.2332 150.821 90.8724C150.705 90.4056 150.738 90.0521 150.989 89.6309C151.177 89.3146 151.447 89.0953 151.756 88.9694C152.071 88.8411 152.43 88.8108 152.787 88.8823Z" fill="black"/>
</svg>
