<svg width="293" height="300" viewBox="0 0 293 300" fill="none" xmlns="http://www.w3.org/2000/svg">
<path fill-rule="evenodd" clip-rule="evenodd" d="M285.932 240.279C281.508 296.956 204.29 305.093 188.876 250.483L188.866 250.487C188.812 250.274 188.695 249.849 188.633 249.639L188.643 249.637C187.275 244.288 186.766 238.498 187.154 232.892L187.155 232.892C187.894 221.324 192.825 209.76 200.739 201.31L200.74 201.311C202.945 198.924 205.369 196.773 207.957 194.87C212.846 209.612 219.937 222.796 228.922 233.761L228.575 234.19C229.008 234.429 229.438 234.669 229.868 234.91C230.017 235.09 230.179 235.292 230.326 235.478C229.726 237.009 231 238.495 232.505 238.788C232.047 239.865 233.17 240.291 233.844 240.485C236.066 240.993 238.675 241.104 240.357 239.859C242.529 237.873 241.767 233.953 239.419 232.464C239.429 232.439 239.437 232.413 239.445 232.387C239.131 232.354 238.847 232.238 238.613 232.047C237.439 231.593 236.069 231.598 234.919 232.106C227.11 219.422 219.279 205.637 214.946 190.61C216.776 189.696 218.679 188.886 220.612 188.208L220.61 188.206C220.662 188.188 220.818 188.136 220.868 188.117L220.868 188.118C222.661 187.502 224.507 186.985 226.365 186.585L226.365 186.583C226.529 186.55 226.87 186.478 227.035 186.443L227.036 186.445C230.347 185.778 233.797 185.464 237.233 185.513L237.233 185.512C237.361 185.515 237.85 185.524 238.009 185.528L238.009 185.531C239.176 185.563 240.377 185.649 241.55 185.762C241.538 185.805 241.52 185.861 241.497 185.927C241.593 185.932 241.686 185.946 241.778 185.968C241.791 185.91 241.805 185.851 241.818 185.793C242.743 185.897 243.678 186.023 244.597 186.179L244.597 186.179L245.255 186.293L245.255 186.295C257.052 188.376 268.168 195.373 275.408 204.959L275.408 204.959C278.464 208.939 280.92 213.373 282.714 218.15L282.715 218.15L283.003 218.932L283.001 218.932C285.412 225.648 286.422 233.022 285.92 240.279L285.932 240.279ZM201.582 165.876C183.846 182.756 164.172 198.46 149.155 217.967L146.347 216.272L146.631 216.218C145.692 216.125 144.824 215.248 144.129 214.677C145.626 214.782 146.103 215.06 146.995 213.352C150.12 207.738 152.815 202.011 156.185 196.47C158.942 191.586 161.701 186.747 164.456 181.812C165.912 179.686 168.345 174.027 164.335 171.181C174.84 166.391 186.943 160.636 198.162 153.656C199.07 157.759 200.486 161.728 201.787 165.684L201.582 165.876ZM141.31 136.189C139.807 134.807 138.152 133.474 137.397 131.471C139.72 131.853 142.017 132.073 144.582 132.115C144.728 132.115 144.863 131.978 144.865 131.825C144.917 128.87 144.913 125.618 144.645 122.46C145.906 123.085 146.919 122.372 148.061 121.76C149.257 122.653 150.491 122.388 151.953 121.76C151.967 121.756 157.858 119.575 157.871 119.573C159.185 119.162 159.749 118.771 160.08 117.936C160.25 117.982 160.592 118.071 160.762 118.115C162.173 120.206 182.646 126.699 184.466 124.291C186.37 125.099 188.646 124.445 190.662 124.301C192.237 124.433 193.839 124.787 195.411 124.588C195.722 126.218 196.036 127.847 196.352 129.476C192.124 135.632 191.495 138.421 192.7 145.818C192.96 147.348 193.465 147.862 195.35 148.085C184.148 154.214 172.884 160.088 161.822 166.642C163.387 162.937 164.942 159.161 166.415 155.458C166.938 154.321 167.637 152.651 167.693 151.095C168.126 145.317 150.082 140.018 143.013 138.106C142.814 137.284 141.906 136.799 141.31 136.189V136.189ZM198.855 146.779C198.936 146.639 199.255 145.968 199.333 145.813C199.513 146.154 199.867 146.787 200.093 147.094C199.652 147.253 198.572 147.843 198.144 148.069L198.855 146.779ZM136.017 176.197C135.826 176.967 135.654 177.699 135.487 178.401C131.308 180.578 127.151 182.569 122.958 184.702L123.091 184.946C120.718 186.334 118.137 187.174 115.806 188.614C113.984 180.761 112.595 172.805 111.562 164.786C112.524 164.751 113.481 164.661 114.453 164.462C115.423 164.487 116.332 164.379 117.105 164.125C122.497 168.102 128.204 171.783 134.068 175.075C134.72 175.509 135.399 175.65 136.136 175.717L136.017 176.197ZM135.339 235.747C134.685 235.683 134.093 236.368 133.463 236.593C131.508 237.604 129.598 238.632 127.718 239.68C127.067 235.897 125.439 232.397 125.327 228.486L125.265 228.605C125.028 228.146 124.547 227.327 124.27 226.886C124.733 226.994 125.609 227.195 126.065 227.299L126.014 227.37C126.606 227.268 127.413 227.643 127.973 227.715C130.002 228.099 132.076 228.492 134.134 228.791C133.605 229.616 133.633 229.661 134.613 229.663C134.053 230.786 133.923 232.147 133.976 233.33C133.992 233.545 134.079 233.502 134.189 233.586C134.406 234.204 134.832 234.63 135.555 234.9L135.339 235.747ZM117.458 192.756L117.274 192.182L117.502 192.105C117.466 192.016 117.324 191.964 117.212 191.987L117.191 191.922C122.816 189.522 128.322 186.823 133.87 184.267C130.612 193.666 124.137 201.792 122.512 211.761L121.654 211.817C119.744 205.372 118.182 198.77 116.672 192.386L116.94 192.295C116.903 192.576 117.182 192.822 117.458 192.756V192.756ZM121.507 239.306C120.897 239.513 120.158 239.587 119.478 239.518C116.52 238.948 113.507 238.483 110.567 238.022C112.239 221.993 106.891 205.662 95.9879 193.903C100.042 190.217 104.344 186.335 108.939 182.212C113.234 203.038 118.115 223.598 121.89 239.177L121.507 239.306ZM103.31 232.991C103.283 234.268 103.203 235.56 103.086 236.832C90.9043 234.931 77.8125 232.953 64.6576 231.379L65.2438 230.747C65.9811 229.841 64.7408 228.354 64.007 227.938C62.6296 227.118 61.0861 227.428 59.562 228.153L59.057 227.447C61.8709 224.901 64.6897 222.376 67.4912 219.817C70.7465 221.203 74.0416 222.401 77.3256 223.672L77.1971 224.461C77.9308 224.465 78.67 224.369 79.3722 224.44C87.4851 227.464 96.0465 230.374 103.317 232.661L103.31 232.991ZM102.51 241.009C102.014 243.779 101.278 246.512 100.339 249.151L100.332 249.147C90.086 281.56 45.6477 292.583 22.5847 266.81C-3.31961 241.46 9.32 191.126 45.6116 183.503C47.689 187.238 49.4341 191.004 51.2976 194.785C52.1937 196.971 53.8113 198.913 54.178 201.308C54.42 202.188 54.6464 203.068 54.8642 203.947C54.8998 203.964 54.9354 203.98 54.9714 203.996C54.9688 203.984 54.966 203.973 54.9634 203.961L55.7656 203.629C57.3696 206.385 59.4204 211.217 61.2466 214.156C63.612 217.716 63.4976 217.457 65.2588 217.66C63.1656 219.737 61.04 221.847 58.9467 223.921C57.0899 225.724 55.336 228.016 52.5421 228.53C51.6335 228.614 50.8626 228.905 50.3226 229.517C50.1965 229.898 50.0078 230.255 49.7936 230.596C48.8351 234.2 53.7715 237.001 56.3474 233.949C71.8549 236.325 87.0745 238.118 102.589 240.567L102.51 241.009ZM69.2885 177.008C75.4986 176.921 83.0104 177.676 91.2277 177.217C91.7171 177.087 92.2787 176.99 92.6539 176.717C94.8441 177.831 97.0699 178.979 99.3218 180.018C99.1484 180.994 100.205 181.575 100.541 182.429C97.7937 185.013 94.966 187.541 92.3585 190.306C85.7756 184.337 77.7479 180.027 69.1724 177.874L69.2885 177.008ZM292.385 228.604C289.25 202.965 266.632 180.172 240.629 178.834L240.497 177.985C241.738 177.503 242.826 176.51 243.734 175.032C235.513 174.209 227.027 175.178 219.466 177.961C218.062 178.504 216.539 179.045 214.982 178.841C214.756 178.395 214.483 177.928 214.182 177.459C214.169 177.457 214.156 177.454 214.144 177.45C213.684 177.287 213.243 177.064 213.02 176.608C212.813 176.187 212.82 175.68 212.734 175.227C212.718 175.144 212.738 175.074 212.777 175.019C212.056 173.78 211.387 172.527 209.841 172.388L210.349 171.846C210.563 171.598 210.435 171.16 210.069 171.085C208.003 163.621 205.477 156.47 203.513 148.958L202.884 149.139C202.803 148.935 202.305 147.695 202.213 147.466L203.327 148.239L203.194 147.724C212.959 151.515 222.442 153.185 231.55 151.597L231.554 151.57C232.63 151.244 233.641 150.78 234.477 150.189C235.005 150.228 235.145 149.913 235.403 149.051C235.939 147.282 236.542 145.499 237.114 143.772C240.396 133.056 244.916 122.763 247.891 112.103C247.969 112.039 248.241 111.78 248.186 111.765C236.468 104.933 208.263 107.007 192.97 109.299C193.236 113.423 194.026 117.461 194.79 121.385C189.236 117.446 183.93 112.812 177.262 110.835L178.832 110.515C179.089 110.473 179.252 109.976 178.983 109.872L178.674 109.761C179.248 105.308 174.229 104.785 171.419 106.977C170.805 107.485 170.119 109.234 171.257 109.618L171.207 110.472C170.271 110.612 169.071 111.14 168.07 111.652C168.295 110.291 167.793 108.428 166.204 109.711C143.438 99.3016 153.314 88.61 151.465 71.7334C151.347 66.6663 150.737 66.3477 145.914 64.0773C143.131 62.3798 140.139 61.1911 137.258 59.6985L137.462 59.4941C137.196 58.9631 136.621 57.814 136.304 57.181L136.186 57.2158C135.747 56.1571 135.409 55.084 135.21 53.9696C135.094 52.6749 134.488 51.8901 133.044 51.6427C129.413 50.879 125.781 51.4637 124.326 55.2956L124.308 55.2987C123.955 56.3111 123.274 57.3449 122.425 57.8384L122.95 58.3074C122.928 58.3478 122.906 58.3881 122.884 58.4282L122.06 58.1825C122.062 58.138 122.067 58.076 122.071 58.0309C121.608 58.2414 121.059 58.3995 120.498 58.399C102.915 55.4167 97.6504 69.1588 100.264 84.3144C99.2283 88.2255 98.3134 92.143 97.3687 96.0357C94.6124 109.029 86.3358 117.105 83.5169 129.665C82.7735 132.718 79.6874 138.332 82.3968 140.289C81.9323 143.877 83.4396 147.731 86.128 150.428C82.0663 150.542 76.4064 157.16 81.1968 160.416C82.9397 161.179 85.0332 161.091 86.9345 161.42L86.7879 161.908C86.8659 162.341 87.5948 162.313 87.9464 162.27C87.9455 163.309 87.8133 164.442 88.2379 165.362C88.2847 165.887 88.5002 166.058 88.6073 166.022C89.3087 166.045 90.0204 165.958 90.7292 165.999C91.802 167.726 93.4075 168.816 95.0677 167.934C96.0778 167.409 96.0604 166.005 97.0164 165.294C99.5186 163.724 102.362 163.982 105.006 164.024C106.102 167.699 106.596 171.428 107.458 175.138C106.328 176.556 105.035 177.994 103.551 179.501L103.357 179.456L103.161 179.516C102.033 178.508 100.781 176.788 99.1803 177.415C85.8185 165.331 64.3184 167.189 47.7983 167.307C40.326 167.395 32.6104 167.477 25.0329 167.821C22.8712 167.871 21.4767 168.031 21.4023 169.655C19.9733 169.717 18.9122 170.068 17.568 170.172C16.7285 170.217 16.291 170.284 16.2623 170.523C16.4248 172.841 16.5161 175.267 17.3251 177.432C18.172 179.575 20.7553 179.573 22.7276 178.782C23.4675 178.465 22.8296 177.549 22.8079 176.989C22.358 175.153 22.0771 173.276 21.9924 171.346C22.9248 171.419 23.7406 171.462 24.8148 171.477L24.833 171.974C26.7223 172.048 34.752 172.189 36.7101 171.916C35.9069 172.886 35.5958 173.882 36.3671 174.975C38.4042 177.243 42.1601 176.211 44.8352 176.552L44.8767 177.42C2.73997 185.257 -13.3029 242.378 17.2599 271.786C47.1471 304.231 104.29 284.911 110.066 241.733C112.553 242.15 115.052 242.48 117.532 243.006C116.068 244.338 113.965 245.013 112.527 246.288C110.034 248.714 109.295 250.307 110.438 251.558L110.459 251.54C111.374 252.05 112.492 252.006 113.513 251.66C114.16 251.748 114.831 251.85 115.475 251.85C116.521 251.828 117.509 251.566 117.786 250.74C117.816 250.426 117.214 249.892 116.921 249.63C118.534 248.505 120.155 247.213 122.006 245.994C122.459 245.768 122.672 245.544 122.831 245.147C130.788 247.991 139.119 241.91 144.192 237.395C144.186 237.421 144.181 237.448 144.174 237.474C144.791 236.868 145.438 236.278 146.141 236.174C146.345 235.967 146.574 235.773 146.83 235.592L150.581 235.725C151.592 235.76 152.938 235.981 153.856 235.641C155.982 234.619 155.073 231.486 153.992 230.043C155.696 229.941 157.425 229.97 159.117 229.742C163.454 229.234 162.222 224.897 158.744 223.916C157.781 222.675 153.5 221.359 153.382 219.799C169.527 202.662 186.972 186.33 203.14 170.137C203.672 171.882 203.783 173.744 203.8 175.507C203.802 179.748 204.929 183.946 205.952 187.996C168.587 211.579 173.529 273.23 214.626 289.992C254.89 308.421 298.63 270.684 292.385 228.604V228.604Z" fill="white"/>
<path d="M123.608 54.5718C123.658 54.4587 123.832 54.5423 123.804 54.6528C123.558 55.792 123.181 57.0876 122.149 57.7603C121.635 63.7748 131.383 65.7839 135.498 62.8013C136.756 62.0187 137.085 61.326 137.114 59.9028C136.248 58.8429 136.479 57.401 136.122 56.1636L137.644 59.2007C140.348 60.572 143.16 61.7121 145.747 63.2993C150.642 65.6123 151.422 66.0157 151.549 71.314C153.212 89.9667 143.995 98.4633 165.807 108.823C167.267 107.802 168.276 109.101 168.196 110.548C169.022 110.147 169.851 109.825 170.774 109.659C169.276 109.202 169.86 107.034 170.788 106.253C173.821 103.95 179.032 104.372 178.776 109.078C179.473 109.327 179.26 110.424 178.565 110.566C184.285 112.557 188.95 116.542 193.792 120.004C193.066 116.264 192.384 112.499 192.161 108.708C192.104 108.689 192.094 108.601 192.153 108.575C192.053 107.947 192.306 107.849 192.47 108.498C203.911 106.435 215.657 106.358 227.258 106.513C233.512 106.592 239.807 107.424 245.621 109.781C246.354 110.16 249.231 110.825 247.945 111.949C247.703 113.474 247.149 114.95 246.654 116.417C243.491 125.216 240.314 134.01 237.391 142.889C236.765 144.771 236.133 146.652 235.544 148.545C235.33 149.233 235.155 150.239 234.26 150.247C233.443 150.804 232.532 151.223 231.588 151.527C229.784 161.874 221.357 169.531 213.885 176.369C214.252 176.908 214.601 177.466 214.905 178.044C217.018 178.231 218.931 177.017 220.898 176.512C228.095 174.177 235.9 173.468 243.426 174.214C243.721 174.244 243.969 174.546 243.785 174.831C242.963 176.185 241.842 177.416 240.303 178.015C261.597 179.396 280.643 194.095 288.402 213.544C307.838 259.343 262.481 310.749 214.096 290.016C172.419 272.166 167.626 212.248 205.094 187.421C204.271 184.188 203.437 180.899 203.112 177.576C202.906 175.251 203.144 172.887 202.55 170.605C186.454 186.443 170.359 202.285 154.456 218.311L153.914 218.861C153.765 219.012 153.477 219.221 153.467 219.439C153.781 220.652 157.853 222.133 158.655 223.161C162.488 224.439 163.662 229.102 158.825 229.796C157.363 229.999 155.878 229.996 154.405 230.066C155.419 231.699 155.805 234.755 153.664 235.669C152.611 236.055 151.303 235.823 150.21 235.784C149.012 235.741 147.814 235.699 146.616 235.657C143.913 237.694 144.72 241.538 143.982 244.459C143.103 251.027 138.545 255.367 131.708 255.369C124.181 255.896 116.398 255.492 109.102 253.512C109.077 253.551 109.026 253.586 108.978 253.568C108.047 253.001 109.055 251.796 109.604 251.287C108.083 249.431 110.519 246.878 111.868 245.589C113.072 244.453 114.818 243.891 116.144 242.868C114.134 242.466 112.097 242.196 110.075 241.859C102.994 285.442 48.103 304.372 16.5929 271.717C-13.9798 241.316 1.18055 185.511 44.4327 176.609C41.6163 176.304 37.686 177.262 35.6652 174.867C35.0847 174.076 34.8997 172.889 35.4581 172.07C34.4085 172.178 16.8382 172.204 24.4532 171.536C23.6693 171.524 22.887 171.498 22.1075 171.441C22.1551 172.218 22.2298 172.995 22.339 173.766C22.5266 175.099 22.8691 176.385 23.1456 177.699C23.2496 178.191 23 178.678 22.4952 178.824C20.2787 179.653 17.6298 179.691 16.5616 177.216C15.722 174.978 15.6321 172.505 15.4659 170.143C15.5053 169.107 17.4354 169.5 18.1857 169.223C19.0105 169.049 19.8308 168.942 20.6632 168.868C20.9945 166.66 24.1002 167.121 25.799 166.948C34.9033 166.576 44.0197 166.541 53.131 166.417C68.7808 166.185 86.4887 165.677 98.9347 176.545C100.595 176.072 101.859 177.651 102.92 178.64C102.965 178.626 103.011 178.625 103.055 178.635C104.303 177.36 105.505 176.042 106.626 174.648C105.819 171.133 105.324 167.538 104.318 164.074C101.904 164.005 99.0236 163.906 96.9376 165.255C96.0185 165.995 96.0493 167.411 94.9005 167.952C92.9819 168.975 91.1422 167.623 90.129 166.05C89.4923 166.03 88.867 166.106 88.2345 166.081C87.6929 166.05 87.5255 165.592 87.4552 165.103C87.076 164.232 87.1287 163.275 87.1437 162.358C86.6366 162.389 85.8399 161.97 86.0109 161.401C84.2128 161.138 82.3172 161.175 80.6359 160.425C75.7784 157.45 80.5046 150.46 84.9044 149.744C82.5437 147.136 81.2218 143.596 81.5792 140.101C78.8801 137.926 82.0542 131.992 82.7335 129.182C83.8401 124.098 86.1582 119.405 88.4376 114.748C92.2979 107.295 94.7767 103.709 96.5841 95.5601C97.5275 91.6721 98.4384 87.7738 99.4611 83.9058C98.988 80.3588 98.7603 79.3839 98.9269 75.8081C99.3124 63.1376 105.503 55.531 120.203 57.5835C122.066 57.4587 123.06 56.2166 123.608 54.5718ZM285.052 257.609C303.587 213.937 259.559 165.103 213.919 186.459C214.144 187.234 214.367 188.007 214.601 188.779C240.304 175.724 272.996 189.617 283.021 215.855C300.461 256.94 259.818 303.12 216.381 284.519C179.754 269.015 174.696 216.207 206.816 193.457C206.566 192.664 206.326 191.868 206.094 191.071C178.894 209.725 175.445 251.983 198.698 275.039C224.78 302.823 271.574 292.434 285.052 257.609ZM200.361 201.607C192.558 210.158 187.889 221.438 187.213 232.955C201.072 234.709 215.341 233.131 228.98 236.524C229.365 236.652 229.202 237.169 228.815 237.111C228.435 237.054 228.057 236.986 227.68 236.913C226.506 237.403 225.27 237.754 224.062 238.154C213.639 241.591 203.226 245.061 192.767 248.391C191.468 248.807 190.159 249.276 188.829 249.583C204.421 304.223 279.828 296.36 285.091 240.363C271.751 241.045 258.351 240.687 245.069 239.221C255.138 246.924 265.605 254.116 275.897 261.507C276.082 261.673 275.845 261.933 275.642 261.833C264.862 254.866 254.552 247.109 244.499 239.152C243.385 239.015 242.272 238.863 241.164 238.693C240.984 239.032 240.76 239.348 240.491 239.622C244.921 254.185 248.063 269.197 249.609 284.325C249.625 284.557 249.238 284.608 249.196 284.379C247.033 269.385 244.179 254.49 240.262 239.834C238.342 241.232 235.612 241.027 233.394 240.534C234.742 255.7 235.917 270.902 236.823 286.095C236.801 286.43 236.274 286.539 236.198 286.178C234.921 270.972 234.033 255.714 233.194 240.474C232.35 240.213 231.414 239.636 231.629 238.707C230.853 238.467 230.176 237.946 229.779 237.29C228.513 239.16 227.232 241.02 225.981 242.899C227.642 241.581 229.299 240.252 231.01 239.002C231.19 238.871 231.402 239.03 231.442 239.21C229.678 241.203 226.984 242.631 224.954 244.455C218.454 254.356 212.823 264.81 208.208 275.687C208.016 276.141 207.254 275.948 207.444 275.481C211.646 265.057 216.971 255.089 223.241 245.724C214.749 252.193 206.124 259.026 197.629 265.228C204.394 259.825 211.204 254.475 218.02 249.134C220.083 247.522 222.146 245.908 224.208 244.296C225.747 242.055 227.356 239.858 229.064 237.745C218.291 244.537 207.584 251.584 196.562 257.925C196.352 257.971 196.243 257.746 196.365 257.592C207.15 250.375 218.684 243.976 229.643 237.036C229.378 236.481 229.299 235.845 229.485 235.193C229.399 235.084 229.312 234.977 229.226 234.873C217.197 228.14 204.226 222.069 191.637 217.09C203.367 221.184 214.71 226.306 225.596 232.233C217.179 222.032 208.608 211.931 200.361 201.607ZM43.9532 180.446C4.32387 189.659 -8.92028 241.184 19.2599 269.198C44.5512 295.885 90.002 286.052 103.181 252.419C104.67 248.82 105.752 245.095 106.422 241.28C105.436 241.125 104.449 240.972 103.462 240.82C96.9853 279.497 49.3744 296.81 21.2648 267.312C-5.01162 240.792 6.92385 191.086 44.3546 182.013C44.1767 181.502 44.0378 180.98 43.9532 180.446ZM42.0724 184.458C7.80092 195.043 -1.99505 241.324 22.548 266.126C46.3892 291.608 88.1902 281.143 99.4083 249.058C90.7975 248.283 82.1495 247.432 73.4865 247.156C72.5546 247.115 71.5875 247.125 70.6661 246.976C69.5931 246.344 71.57 245.401 72.1466 246.008C72.1728 246.027 72.1802 246.055 72.1749 246.079C79.5159 246.069 86.845 246.549 94.1447 247.292C95.1012 247.39 96.056 247.503 97.0099 247.624C97.9102 247.802 98.9169 247.707 99.7365 248.141C100.596 245.665 101.257 243.131 101.721 240.551C86.5619 238.168 71.3189 236.359 56.1505 234.038C53.0339 237.244 47.7099 233.901 49.1202 229.792C47.3885 228.166 48.804 225.49 50.6359 224.576C51.5352 224.068 52.5275 223.812 53.5353 223.623C49.669 210.587 45.6467 197.576 42.0724 184.458ZM143.109 238.21C137.592 242.898 130.292 247.666 122.7 245.296C122.469 245.753 121.864 245.954 121.455 246.25C120.059 247.266 118.659 248.282 117.259 249.292C117.76 249.759 118.157 250.403 117.601 250.99C116.478 252.207 114.713 251.937 113.196 251.729C112.232 252.033 111.113 252.119 110.17 251.677C109.668 252.094 109.135 252.624 109.121 253.295C109.196 253.228 109.214 253.283 109.188 253.355C117.038 253.926 124.958 254.507 132.816 253.763C139.647 253.435 142.019 248.116 142.577 242.155C142.735 240.921 142.808 239.516 143.109 238.21ZM121.538 244.862C120.426 244.504 118.008 242.948 117.005 243.289C115.608 244.142 114.286 245.114 112.756 245.74C111.567 246.865 110.369 248.252 110.041 249.881C109.945 250.694 110.671 250.901 111.336 250.841C111.449 250.686 111.759 250.629 111.943 250.726C112.347 250.607 112.732 250.418 113.104 250.234C116.118 248.769 118.97 246.995 121.538 244.862ZM187.209 233.025C186.871 238.571 187.412 244.222 188.814 249.529C201.341 244.99 214.07 240.975 226.696 236.709C213.715 233.97 200.275 235.196 187.209 233.025ZM57.587 229.52C57.3294 231.024 57.5212 232.758 56.2853 233.901C76.7765 235.728 97.1793 238.702 117.443 242.155C118.867 242.52 120.156 243.173 121.485 243.772C129.643 247.457 137.742 241.574 143.697 236.501C143.86 236.172 144.055 235.86 144.285 235.574C141.243 235.342 138.246 235.656 135.227 234.995C136.27 236.092 134.024 236.437 133.333 236.766C131.473 237.499 129.6 238.204 127.719 238.881C128.387 244.983 122.515 243.949 121.167 239.241C120.753 239.342 120.333 239.374 119.905 239.355C119.825 239.456 119.696 239.525 119.535 239.502C117.285 239.18 115.045 238.759 112.802 238.387C109.287 237.852 105.79 237.133 102.257 236.752C102.26 236.728 102.262 236.702 102.264 236.678C87.6884 234.515 73.1302 232 58.4728 230.509C57.9522 230.459 57.5126 230.071 57.5919 229.517C57.5903 229.519 57.5887 229.519 57.587 229.52ZM105.794 163.671C108.328 176.881 111.87 189.871 114.348 203.093C116.744 215.013 119.113 226.966 122.649 238.621C122.994 239.72 123.237 240.909 124.109 241.75C125.006 242.428 126.117 242.536 126.651 241.471C126.862 240.736 126.66 240.004 126.519 239.253C125.676 235.2 125.198 231.012 124.195 227.025C120.387 226.299 119.756 225.702 119.988 221.837C120.081 220.28 120.173 218.708 120.475 217.176C120.668 216.263 120.997 215.368 121.412 214.509C121.43 213.976 121.465 213.444 121.517 212.916C120.326 212.929 120.371 211.198 120.004 210.375C119.748 209.513 119.49 208.653 119.238 207.792C115.017 193.535 111.835 178.949 110.323 164.187C108.813 164.026 107.303 163.851 105.794 163.671ZM244.618 186.311C242.792 200.076 240.952 213.844 239.931 227.695C245.974 215.876 252.641 203.837 260.635 193.387C253.608 204.941 246.591 216.515 240.586 228.624C240.294 229.202 240.02 229.807 239.722 230.4C239.668 230.896 239.692 231.427 239.566 231.908C241.057 233.016 241.854 234.926 241.714 236.74C242.613 237.402 243.513 238.065 244.41 238.732C246.027 238.885 247.642 239.04 249.26 239.175C261.184 240.195 273.178 240.362 285.13 239.812C285.627 232.509 284.594 225.106 282.09 218.31C268.5 222.383 255.059 226.947 241.809 231.976C241.459 232.088 241.222 231.542 241.558 231.39C254.775 226.224 268.326 221.863 282.068 218.25C280.257 213.33 277.694 208.688 274.505 204.589C263.973 213.878 253.032 222.866 241.464 230.865C240.249 230.867 242.658 229.318 242.932 229.08C253.7 221.223 264.126 212.927 274.443 204.508C267.154 195.095 256.408 188.383 244.618 186.311ZM234.879 238.251C234.525 238.557 234.095 238.749 233.634 238.843C233.75 238.88 233.872 238.913 233.99 238.945C234.121 238.668 234.539 238.545 234.844 238.452C234.844 238.384 234.855 238.315 234.879 238.251ZM108.308 182.67C104.279 186.286 100.26 189.912 96.254 193.552C100.626 198.371 104.105 203.867 106.609 209.918C110.173 218.487 111.564 227.975 110.69 237.271C113.534 237.716 116.383 238.162 119.206 238.706C119.815 238.753 120.432 238.703 121.012 238.508C116.524 219.971 112.175 201.359 108.308 182.67ZM241.704 236.861C241.65 237.404 241.513 237.938 241.285 238.44C242.165 238.52 243.045 238.603 243.924 238.686C243.181 238.082 242.441 237.474 241.704 236.861ZM127.629 227.775C127.081 227.789 125.3 226.883 125.408 227.884C125.447 231.589 126.987 235.031 127.681 238.621C129.415 237.659 131.162 236.723 132.925 235.812C133.632 235.533 134.244 234.821 135.045 234.931C134.354 234.671 133.778 234.239 133.483 233.51C133.311 233.411 133.186 233.228 133.181 232.958C133.161 231.867 133.195 230.719 133.61 229.703C133.149 229.689 132.833 229.135 133.066 228.746C131.246 228.465 129.432 228.142 127.629 227.775ZM239.606 238.292C239.623 238.294 239.642 238.297 239.66 238.298C239.717 238.226 239.769 238.151 239.816 238.073C239.811 238.055 239.806 238.039 239.802 238.022C239.74 238.114 239.675 238.204 239.606 238.292ZM239.916 237.846C239.92 237.856 239.921 237.866 239.925 237.876C239.959 237.808 239.992 237.74 240.022 237.669C239.988 237.729 239.953 237.788 239.916 237.846ZM233.135 237.813C235.59 237.495 235.177 233.482 231.145 233.999C231.118 234.021 231.092 234.046 231.067 234.07C231.307 234.573 231.644 235.003 231.931 235.468C232.47 236.387 231.09 237.19 230.466 236.316C230.502 236.43 230.547 236.539 230.602 236.64C230.644 236.605 230.679 236.671 230.63 236.691C231.106 237.511 232.129 237.834 233.069 237.818C233.019 237.169 233.094 237.16 233.135 237.813ZM236.915 237.084C236.911 237.163 236.916 237.189 236.924 237.19C236.938 237.19 236.963 237.098 236.944 237.094C236.946 237.094 236.935 237.091 236.915 237.084ZM104.263 233.144C104.23 234.175 104.168 235.2 104.077 236.22C105.061 236.375 106.045 236.532 107.029 236.691C107.108 235.799 107.165 234.901 107.199 234C106.216 233.73 105.238 233.442 104.263 233.144ZM238.945 235.382C239.066 233.703 237.017 232.515 235.511 233.042C235.495 233.061 235.445 233.149 235.46 233.18C235.745 233.952 236.722 234.603 236.948 235.557C237.029 235.902 237.002 236.223 236.967 236.56C237.571 236.084 238.004 234.978 238.945 235.382ZM78.8634 224.471C78.0627 224.485 77.2607 224.506 76.4601 224.533C71.2878 224.636 66.1483 225.317 60.9904 225.606C60.3429 226.189 59.6399 226.756 59.0118 227.378C60.5147 226.639 62.3656 226.252 63.8624 227.171C64.8819 227.725 66.1929 229.608 65.212 230.666C77.6226 232.166 89.9848 234.02 102.333 235.945C102.429 234.837 102.49 233.723 102.515 232.601C95.9262 230.527 89.3892 228.288 82.8898 225.955C81.5456 225.467 80.2031 224.971 78.8634 224.471ZM106.917 176.042C106.386 176.656 105.728 177.185 105.136 177.74C92.8762 189.633 80.9236 201.834 68.7697 213.833C63.8927 218.386 59.6206 223.689 54.2941 227.724C53.8175 227.992 53.3037 228.209 52.7726 228.345C51.8404 228.547 50.7108 228.558 50.1583 229.455C48.3339 232.53 52.1354 236.014 55.1183 233.875C55.0744 233.878 54.968 233.841 55.0499 233.807C55.8496 233.598 56.3721 232.509 56.5206 231.744C55.0954 232.499 54.3863 230.537 53.7091 229.635C53.3384 229.611 52.9599 229.714 52.5607 229.776C51.0982 229.725 52.1717 228.433 53.588 228.857C54.2852 228.763 54.9909 229.259 55.5519 229.657C55.9125 229.893 56.3679 229.984 56.6603 230.302C56.6779 230.079 56.6995 229.855 56.7365 229.633C56.1173 229.458 55.7535 228.717 55.9816 228.127C56.067 227.718 56.4792 227.379 56.9171 227.373C56.8926 227.377 56.8685 227.381 56.8448 227.385C56.8858 227.381 57.134 227.342 57.0831 227.342C57.3039 227.362 57.5983 227.427 57.7091 227.625C74.302 212.124 91.4144 197.129 108.108 181.719C107.708 179.827 107.312 177.935 106.917 176.042ZM138.714 231.137C137.518 229.312 135.493 230.082 134.807 231.898C134.052 235.08 140.32 234.536 138.714 231.137ZM210.048 171.943C209.465 172.089 208.844 172.01 208.246 172.033C206.976 172.052 205.719 172.317 204.466 172.461C204.707 174.817 204.591 177.199 205.036 179.539C208.688 199.351 217.756 218.033 230.543 233.719C230.546 233.718 230.548 233.718 230.552 233.718C230.297 232.59 232.198 232.668 232.912 232.829C232.612 232.361 233.576 231.871 233.873 231.62C223.011 218.133 211.1 190.588 210.307 173.423C210.307 173.297 210.506 173.266 210.533 173.393C211.239 176.61 212.058 179.808 212.937 182.988C220.46 179.49 228.617 177.753 236.944 177.87C237.36 177.675 237.752 177.484 238.072 177.176C238.365 177.035 238.615 177.006 238.905 176.929C240.118 176.218 241.659 175.999 242.631 174.956C235.891 174.351 229.038 174.941 222.509 176.692C220.145 177.492 217.774 178.27 215.365 178.932C215.596 179.291 215.661 179.804 216.004 180.058C216.462 180.447 216.088 181.108 215.6 181.251C214.785 181.492 214.463 180.682 214.294 180.082C213.916 178.737 213.472 177.392 212.788 176.165C211.978 174.695 211.492 172.953 210.048 171.943ZM207.378 195.207C204.883 197.077 202.515 199.236 200.395 201.571C208.63 210.902 216.577 220.52 224.626 230.021C225.487 231.041 226.398 232.039 227.196 233.108C227.537 233.295 227.88 233.481 228.227 233.659C218.907 222.272 212.039 209.05 207.378 195.207ZM148.188 231.189C148.26 231.344 148.296 231.514 148.287 231.679C148.522 231.894 148.654 232.23 148.607 232.555C148.777 232.823 148.835 233.152 148.749 233.445C149.948 233.471 151.148 233.46 152.35 233.409C152.349 233.136 152.348 232.864 152.352 232.591C152.356 232.315 152.41 231.913 152.404 231.577C151 231.433 149.595 231.293 148.188 231.189ZM234.008 232.216C233.734 232.355 233.142 232.406 233.147 232.763C233.249 232.747 233.161 232.865 233.11 232.871C233.33 232.921 233.547 232.993 233.757 233.083C233.762 232.793 233.867 232.46 234.008 232.216ZM91.882 197.529C100.083 207.036 104.479 219.528 104.286 232.077C105.265 232.371 106.246 232.657 107.231 232.929C107.542 219.444 102.638 206.027 93.5372 196.021C92.9851 196.524 92.4332 197.026 91.882 197.529ZM237.166 185.577C233.572 185.505 229.98 185.83 226.507 186.549C228.501 199.938 230.786 213.285 233.289 226.586C233.314 226.832 232.933 226.86 232.866 226.642C230.112 213.404 227.898 200.018 226.3 186.592C224.467 186.979 222.658 187.474 220.878 188.079C221.659 189.614 222.369 191.165 223.038 192.749C223.316 193.3 224.188 195.733 222.765 195.063C222.274 194.542 221.984 193.85 221.741 193.19C221.146 191.588 220.628 189.969 220.205 188.313C218.478 188.927 216.764 189.65 215.117 190.46C219.371 205.017 226.837 218.316 234.75 231.188C235.863 230.779 237.149 230.796 238.253 231.204C239.112 229.635 239.062 228.842 239.169 227.125C240.332 213.453 241.707 199.747 244.381 186.269C243.527 186.121 242.668 185.996 241.804 185.895C241.605 186.753 241.372 187.651 241.307 188.541C241.294 188.676 241.212 188.835 241.059 188.86C239.396 188.958 240.277 186.627 240.587 185.767C239.493 185.668 238.393 185.605 237.286 185.581C236.207 200.219 235.691 214.885 235.537 229.556C235.524 229.807 235.154 229.806 235.14 229.556C234.912 214.889 235.645 200.169 237.166 185.577ZM122.615 223.011C122.055 223.008 121.316 222.94 121.01 223.399C121.002 224.45 121.256 225.309 122.443 225.461C130.124 227.352 137.976 228.522 145.885 228.847C149.971 229.004 154.112 229.047 158.191 228.704C161.578 228.577 161.835 226.16 159.072 224.528C158.634 224.792 158.023 224.757 157.56 224.799C157.325 225.523 154.018 224.913 153.167 224.995C142.954 224.763 132.807 223.223 122.615 223.011ZM45.0333 183.629C44.0891 183.859 43.151 184.119 42.2218 184.412C46.3941 197.375 50.1515 210.483 54.0167 223.536C55.1768 223.334 56.4026 223.132 57.339 222.379C57.8454 221.972 58.5674 222.647 58.13 223.075C55.7214 225.122 51.6772 223.938 49.7853 226.725C49.3785 227.378 49.2286 228.212 49.6661 228.827C50.2485 228.058 51.2143 227.839 52.1271 227.714C54.7424 227.241 56.4949 224.962 58.2843 223.225C60.1644 221.363 62.0439 219.498 63.923 217.633C61.2118 217.388 56.7456 206.194 55.0372 203.483C56.3817 209.362 57.9849 215.199 59.006 221.143C59.0491 221.508 59.0184 221.871 59.0519 222.235C59.0561 222.274 58.9994 222.275 58.9865 222.244C56.3942 215.401 55.3335 208.062 53.3917 201.019C53.0512 198.713 51.42 196.747 50.5343 194.57C48.7216 190.898 47.0187 187.223 45.0333 183.629ZM124.904 227.294C124.922 227.261 124.942 227.229 124.964 227.199C124.921 227.189 124.877 227.179 124.833 227.169C124.858 227.21 124.881 227.252 124.904 227.294ZM61.3195 225.309C66.3971 224.208 71.6358 223.948 76.8116 223.702C73.6132 222.464 70.3766 221.285 67.2238 219.951C65.2559 221.737 63.2874 223.524 61.3195 225.309ZM144.685 215.568C142.858 214.469 140.817 213.073 138.598 213.273C138.296 213.484 137.928 213.469 137.587 213.367C136.271 213.642 135.082 214.311 133.994 215.069C131.851 216.368 130.341 218.828 127.776 219.333C125.598 219.627 122.756 217.405 122.248 215.441C122.2 215.434 122.151 215.422 122.104 215.408C121.427 217.588 121.448 219.872 121.511 222.119C131.189 222.73 140.85 223.742 150.546 224.142C152.352 224.231 154.158 224.31 155.965 224.38C156.815 224.422 157.648 224.41 158.446 224.11C158.258 223.971 158.009 223.854 157.971 223.612C155.235 221.957 152.501 220.302 149.767 218.646C148.631 218.892 147.114 218.477 146.379 219.552C146.399 219.676 146.353 219.813 146.234 219.871C145.994 220.131 145.429 220.04 145.412 219.56C145.45 218.437 147.173 217.853 148.107 217.641C147.382 217.202 146.657 216.763 145.932 216.324C145.047 216.52 144.177 216.784 143.326 217.093C142.964 217.224 142.505 217.537 142.112 217.452C142.088 217.48 142.067 217.509 142.049 217.538C142.128 217.571 142.205 217.607 142.247 217.618C142.602 217.717 142.513 218.214 142.162 218.231C141.616 218.258 140.734 218.111 140.917 217.354C141.407 216.256 143.566 215.815 144.685 215.568ZM121.454 222.538C121.697 222.494 121.947 222.486 122.197 222.488C121.95 222.457 121.705 222.415 121.486 222.342C121.478 222.407 121.466 222.472 121.454 222.538ZM201.007 165.436C184.544 183.268 164.987 198.513 149.82 217.436C149.787 217.479 149.751 217.52 149.712 217.555C149.954 217.551 151.977 217.793 150.921 217.836C151.224 217.912 151.435 218.296 151.125 218.476C151.626 218.778 152.127 219.081 152.628 219.383C152.782 218.378 154.352 217.412 155.009 216.567C164.465 207.338 173.648 197.83 183.012 188.5C189.383 182.12 195.803 175.784 202.264 169.492C201.863 168.134 201.425 166.79 201.007 165.436ZM148.632 218.175C148.731 218.163 148.83 218.151 148.929 218.139C148.913 218.129 148.896 218.12 148.88 218.11C148.797 218.13 148.714 218.152 148.632 218.175ZM137.324 209.49C130.947 209.487 126.834 210.066 122.793 215.34C122.873 215.572 123.311 215.573 123.173 215.78C124.701 217.726 127.578 219.054 129.651 217.114C131.878 215.314 134.265 213.529 137.041 212.656C136.845 211.6 136.915 210.484 137.324 209.49ZM197.516 153.972C187.095 160.411 175.942 165.819 164.772 170.922C168.015 173.848 166.472 178.459 164.485 181.646C161.75 186.547 158.969 191.424 156.21 196.312C152.998 201.637 150.266 207.208 147.333 212.678C146.793 213.49 146.256 214.898 145.092 214.823C145.843 215.449 146.717 215.549 147.663 215.357C148.038 215.314 148.109 215.917 147.752 215.996C147.569 216.036 147.385 216.073 147.201 216.108C147.64 216.372 148.078 216.637 148.517 216.902C148.533 216.838 148.561 216.777 148.603 216.721C164.155 197.846 183.035 181.852 200.926 165.174C199.704 161.465 198.396 157.777 197.516 153.972ZM132.732 184.734C127.51 187.153 122.267 189.706 117.005 191.948C117.016 191.941 117.027 191.955 117.022 191.964C116.946 192.11 116.8 192.026 116.745 191.904C118.283 198.402 119.823 204.905 121.722 211.312C123.243 201.724 129.407 193.708 132.732 184.734ZM55.6876 179.076C51.818 179.076 48.0133 179.507 44.3048 180.363C44.4405 180.889 44.6289 181.397 44.8527 181.891C60.1248 178.158 76.8623 182.827 88.1388 193.619C88.4875 193.272 88.8372 192.926 89.1866 192.58C89.2195 192.377 89.4162 192.21 89.5236 192.034C80.3211 183.775 68.1556 179.031 55.6876 179.076ZM134.57 178.47C128.575 182.052 122.312 185.223 116.154 188.514C116.096 188.533 116.036 188.535 115.977 188.525C116.22 189.622 116.468 190.719 116.724 191.814C116.737 191.543 117.204 191.382 117.389 191.272C119.389 190.133 121.463 189.126 123.527 188.105C126.755 186.521 129.97 184.916 133.214 183.369C133.756 181.762 134.173 180.119 134.57 178.47ZM92.3165 176.839C92.0204 177.017 91.5552 177.114 91.1671 177.214C91.0793 177.373 90.9152 177.489 90.673 177.485C83.4235 177.348 76.1744 177.209 68.9249 177.067C77.4738 179.215 85.4205 183.454 91.9786 189.313C94.4179 186.752 97.0547 184.384 99.6368 181.96C99.3114 181.364 98.6826 180.895 98.5323 180.215C98.5165 180.139 98.5088 180.03 98.5138 179.912C96.4243 178.94 94.3714 177.884 92.3165 176.839ZM116.665 164.228C115.862 164.468 114.985 164.537 114.137 164.522C113.35 164.677 112.549 164.779 111.749 164.819C111.929 165.636 111.931 166.446 112.166 167.233C112.629 174.082 114.39 180.812 115.76 187.543C117.929 186.275 120.34 185.466 122.513 184.187C120.405 185.23 118.293 186.266 116.156 187.242C122.2 183.865 128.584 180.93 134.75 177.724C134.91 177.052 135.069 176.381 135.234 175.711C134.594 175.632 134.025 175.414 133.477 175.066C127.639 171.79 122.047 168.186 116.665 164.228ZM98.6085 177.377C85.7959 167.102 68.3197 167.015 52.4298 167.487C44.0786 167.55 35.7252 167.662 27.3751 167.826C25.9973 168.04 21.4799 167.326 21.0382 168.824C22.1717 168.8 22.0664 170.044 22.0763 170.85C24.5207 170.587 26.9836 170.449 29.4435 170.386C45.6363 170.009 61.8639 169.631 78.0538 170.143C80.0577 170.32 81.9686 170.747 83.8351 171.404C84.9377 171.702 86.0183 172.076 87.0646 172.538C88.8199 173.287 90.3239 174.472 92.0704 175.24C94.4742 176.442 96.9123 177.596 99.2765 178.872C99.723 179.112 99.6612 179.587 99.379 179.849C99.5919 180.209 99.8859 180.513 100.156 180.83C100.775 180.324 101.435 179.868 102.031 179.333C101.281 178.685 99.885 176.701 98.7726 177.369C98.7162 177.408 98.657 177.404 98.6085 177.377ZM18.9845 177.04C18.8568 177.077 18.7211 177.092 18.589 177.085C18.781 177.281 19.017 177.43 19.3068 177.502C19.4176 177.531 19.5303 177.549 19.6447 177.559C19.3877 177.483 19.1423 177.288 18.9845 177.04ZM20.9698 176.869C20.8637 177.204 20.6358 177.432 20.3693 177.538C20.6149 177.504 20.8613 177.446 21.1007 177.375C21.0541 177.208 21.0112 177.039 20.9698 176.869ZM78.7413 171.735C64.4189 171.142 50.0418 172.011 35.7062 172.066C35.398 172.663 35.5057 173.389 35.8683 173.966C37.2711 176.176 41.5461 175.28 43.8898 175.52C47.8346 175.662 51.7405 175.589 55.6876 175.44C67.3499 176.078 79.0082 176.088 90.6876 176.326C90.721 176.276 90.7643 176.23 90.8165 176.192C87.1154 174.039 83.1166 171.974 78.7413 171.735ZM203.487 148.091C205.421 155.588 208.009 162.921 210.084 170.388C210.592 170.616 210.674 171.382 210.316 171.765C211.782 172.139 212.395 173.899 213.186 175.053C220.542 168.468 227.618 161.11 230.964 151.707C222.827 153.205 214.192 151.529 206.376 149.161C205.402 148.839 204.434 148.487 203.487 148.091ZM159.196 172.636C159.188 172.655 159.179 172.674 159.171 172.693C159.236 172.657 159.302 172.624 159.367 172.588C159.311 172.604 159.252 172.619 159.196 172.636ZM196.665 148.018C195.918 147.852 195.179 147.758 194.418 147.941C188.002 152.382 180.955 155.872 174.145 159.682C170.084 161.949 165.998 164.179 162.014 166.577C160.786 168.188 160.305 170.484 159.332 172.323C161.984 171.272 164.675 170.229 167.105 168.732C167.762 168.596 170.915 166.256 171.073 166.783C177.214 163.759 183.258 160.556 189.25 157.258C190.5 156.573 191.746 155.882 192.989 155.184C193.977 154.758 196.391 152.843 197.297 153.1C197.043 152.162 196.925 151.208 196.734 150.259C196.586 149.54 196.45 148.741 196.665 148.018ZM16.9542 170.53C17.0802 171.06 17.1778 171.599 17.2667 172.137C17.2782 171.964 17.2933 171.791 17.3126 171.619C17.3584 171.218 17.3763 170.657 17.5743 170.284C17.3674 170.363 17.1611 170.445 16.9542 170.53ZM202.554 147.681C201.598 147.177 200.914 146.786 199.789 147.081C199.138 147.212 198.592 147.515 198.476 148.179C198.459 148.278 198.395 148.33 198.319 148.348C199.639 152.639 200.948 156.948 201.726 161.379C202.156 164.208 203.171 166.884 203.937 169.63C204.122 170.335 204.267 171.042 204.373 171.751C205.742 170.842 207.4 170.432 209.032 170.294C207.011 162.787 204.423 155.304 202.549 147.821C202.546 147.775 202.549 147.728 202.554 147.681ZM87.9679 161.88C88.1666 162.722 88.2488 163.624 88.6945 164.395C90.2252 163.929 91.19 164.68 92.004 165.876C92.6181 166.584 93.9591 167.163 94.4904 166.052C94.9226 164.907 95.6422 163.869 96.8273 163.378C96.9399 163.326 97.0546 163.276 97.1691 163.229C94.0619 163.029 91.001 162.584 87.9679 161.88ZM169.545 114.358C170.497 115.965 168.617 116.285 167.386 116.293C164.961 116.562 162.547 116.9 160.121 117.159C160.251 118.589 158.824 119.262 157.642 119.614C155.683 120.338 153.724 121.063 151.764 121.788C150.467 122.362 148.942 122.746 147.676 121.89C146.791 122.348 145.816 123.021 144.778 122.695C144.999 125.609 144.998 128.532 144.95 131.452C144.946 131.837 144.616 132.181 144.215 132.174C142.068 132.137 139.92 131.977 137.798 131.651C138.556 133.242 140.04 134.308 141.266 135.496C141.848 136.092 142.703 136.556 142.993 137.356C150.972 139.367 158.929 142.194 165.782 146.755C168.885 148.867 167.773 152.413 166.47 155.24C165.142 158.575 163.781 161.898 162.388 165.208C172.663 159.161 183.244 153.618 193.712 147.904C192.588 147.686 192.056 146.528 191.911 145.513C190.666 138.43 191.388 134.898 195.528 128.996C195.25 127.557 194.973 126.119 194.698 124.68C193.261 124.806 191.733 124.48 190.305 124.362C188.3 124.509 186.17 125.123 184.22 124.417C182.5 126.086 172.581 123.083 170.1 122.303C166.728 121.185 163.214 120.352 160.255 118.303C159.783 117.999 160.225 117.25 160.7 117.556C161.757 118.236 162.864 118.838 164.014 119.346C169.556 121.402 175.405 122.403 181.172 123.653C181.977 123.719 182.937 124.325 183.641 123.747C184.264 123.213 184.87 122.658 185.483 122.113C181.3 117.586 175.809 114.762 169.545 114.358ZM202.939 148.597C202.922 148.509 202.907 148.42 202.893 148.332C202.864 148.317 202.838 148.301 202.814 148.284C202.855 148.388 202.897 148.493 202.939 148.597ZM198.886 146.611C198.95 146.577 199.015 146.546 199.08 146.518C199.052 146.476 199.025 146.433 199.001 146.389C198.965 146.464 198.926 146.538 198.886 146.611ZM195.707 129.915C194.331 132.719 192.682 135.46 192.715 138.672C192.66 140.579 192.905 142.491 193.175 144.375C193.26 144.971 193.277 145.883 193.73 146.349C194.362 146.803 195.246 146.183 195.984 146.417C196.315 146.474 196.733 146.707 197.058 146.54C197.92 145.897 197.989 144.681 198.401 143.764C198.069 142.048 197.733 140.332 197.4 138.618C196.835 135.716 196.269 132.816 195.707 129.915ZM99.6407 85.1704C98.6625 93.3132 96.8157 97.9497 94.3038 105.768C91.1287 114.764 85.799 121.961 83.7374 131.339C83.8475 131.3 83.9857 131.44 83.9161 131.557C83.5171 132.228 83.2003 132.937 82.9659 133.671C82.4876 135.17 82.3494 136.768 82.5353 138.333C93.745 131.33 107.576 129.575 120.49 132.019C123.735 132.481 127.038 132.722 130.299 132.279C129.679 128.795 130.165 125.196 130.423 121.691C130.557 119.706 130.781 117.563 132.172 116.005C125.016 114.733 117.871 112.44 111.761 108.497C102.553 102.456 101.617 94.9695 99.6407 85.1704ZM233.236 112.663C233.344 112.345 232.834 112.209 232.727 112.525C230.382 120.229 228.395 128.064 226.67 135.924C226.342 137.008 227.214 136.95 227.138 136.401C228.772 128.411 230.939 120.494 233.236 112.663ZM133.25 116.387C132.367 118.243 132.442 120.35 132.361 122.352C132.257 124.782 132.061 127.214 132.181 129.648C132.12 130.632 132.84 132.332 131.776 132.915C131.623 133.71 128.865 133.755 128.115 133.874C132.095 134.221 135.862 135.621 139.72 136.547C138.375 135.261 137.084 133.53 137.394 131.589C134.54 131.204 133.85 130.896 133.852 127.912C133.671 124.247 133.833 120.371 135.268 116.946C134.587 116.751 133.942 116.574 133.25 116.387ZM138.022 116.074C137.613 116.622 137.084 117.043 136.316 117.077C136.125 117.085 135.936 117.071 135.748 117.043C135.548 121.195 135.026 125.428 135.821 129.546C138.356 130.097 140.926 130.497 143.516 130.681C143.622 127.627 143.493 124.569 143.257 121.524C142.511 120.628 141.978 119.133 143.317 118.468C141.735 117.319 139.898 116.604 138.022 116.074ZM186.146 122.689C185.765 123.027 185.39 123.4 185.002 123.755C186.051 123.984 187.141 123.845 188.203 123.733C187.486 123.453 186.807 123.098 186.18 122.655C186.169 122.666 186.158 122.678 186.146 122.689ZM191.064 119.975C185.123 115.541 178.666 110.523 170.791 110.847C169.951 110.834 169.074 110.833 168.232 110.926C168.333 111.98 168.72 113.006 169.276 113.911C176.159 112.79 182.24 116.718 186.81 121.373C188.971 122.989 191.808 123.193 194.427 123.27C194.321 122.72 194.214 122.168 194.107 121.616C192.862 121.702 192.045 120.563 191.064 119.975ZM141.158 108.811C140.287 111.144 139.518 113.547 138.267 115.71C141.715 115.162 144.707 117.768 147.167 119.792C147.197 119.778 147.227 119.766 147.257 119.753C147.553 120.085 147.961 120.262 148.34 120.459C148.345 120.739 148.758 120.751 148.952 120.873C148.939 120.895 148.927 120.918 148.912 120.939C149.592 121.13 150.231 120.879 150.901 120.641C153.443 119.668 156.109 118.936 158.585 117.834C159.548 117.058 157.941 115.846 158.691 115.194C157.232 113.716 156.266 111.148 153.865 111.1C153.916 111.126 153.965 111.154 154.014 111.182C152.551 110.679 151.041 111.31 149.579 111.25C146.58 111.007 144.072 109.292 141.158 108.811ZM144.094 119.043C144.051 119.766 144.735 120.262 145.252 120.665C145.286 120.686 145.32 120.707 145.356 120.727C145.52 120.665 145.686 120.585 145.855 120.496C145.272 120.004 144.695 119.509 144.094 119.043ZM166.884 110.279C166.824 110.471 166.682 110.647 166.521 110.752C166.763 111.268 167.124 111.934 166.394 112.206C163.978 113.091 161.342 112.924 158.848 113.488C159.238 114.018 160.744 115.042 159.673 115.576C159.713 115.663 159.752 115.752 159.79 115.842C162.658 115.479 165.546 115.231 168.421 114.906C167.458 113.55 166.947 111.927 166.884 110.279ZM121.759 58.0073C121.016 58.4191 120.14 58.5998 119.251 58.6685C109.975 58.0115 104.003 59.204 101.821 67.77C98.8017 80.0871 101.717 91.6455 107.485 102.898C112.94 110.629 123.291 112.49 132.224 114.292C132.896 113.753 135.359 115.193 136.297 115.125C136.351 115.065 136.404 114.991 136.463 114.94C136.239 115.136 136.457 114.946 136.526 114.845C137.063 114.06 137.453 113.168 137.828 112.299C137.829 112.297 137.831 112.292 137.833 112.29C137.833 112.287 137.834 112.284 137.836 112.281C138.693 110.27 139.37 109.145 140.227 107.135C122.962 103.425 109.493 91.1052 114.254 73.8462C114.278 73.7779 114.384 73.7876 114.385 73.8638C114.395 75.8344 114.298 77.8024 114.423 79.7729C115 92.2726 122.582 98.2212 134.387 103.284C131.321 84.5058 119.413 77.5657 121.759 58.0073ZM138.643 60.2397C140.678 78.4412 138.726 86.3427 137.601 104.533C139.005 104.999 140.443 105.376 141.901 105.655C142.712 105.811 142.723 106.917 142.169 107.298C142.069 107.478 141.966 106.737 141.889 106.926C141.891 106.92 141.895 106.91 141.901 106.896C141.747 107.259 141.605 107.626 141.464 107.994C143.929 108.539 146.262 109.671 148.732 110.089C147.779 109.323 146.824 108.531 146.058 107.578C145.574 106.904 145.207 107.162 144.514 106.664C144.473 107.556 144.426 107.498 144.459 108.387C144.475 108.845 143.797 108.823 143.749 108.387C143.233 105.087 142.742 102.725 142.783 99.3726C142.809 87.6687 142.509 81.7066 145.254 70.2642C145.275 70.2115 145.344 70.2234 145.351 70.2778C145.461 71.1216 145.4 71.9708 145.37 72.8188C144.648 84.0727 143.83 89.2863 144.441 100.567C144.704 102.28 144.008 105.074 145.352 106.286C147.158 108.268 149.516 108.726 151.858 110.074C152.172 110.317 152.569 110.123 152.934 110.093C153.583 109.982 154.216 109.913 154.865 110.068C156.437 110.448 157.525 111.754 158.444 112.976C160.528 111.752 163.148 112.08 165.391 111.282C165.307 111.078 165.238 110.868 165.194 110.656C148.063 102.067 148.389 96.811 149.756 80.1226C149.867 74.7585 150.069 72.7972 149.556 67.4556C149.079 65.0886 146.519 65.0906 144.763 63.769C143.12 62.547 141.36 61.4693 139.465 60.6626C139.195 60.5267 138.918 60.3874 138.643 60.2397ZM176.578 107.679C175.902 106.216 173.557 106.931 172.402 107.425C172.152 107.569 171.951 107.728 171.804 107.942C172.142 108.056 172.378 108.4 172.374 108.736C173.813 108.961 175.279 109.073 176.736 109.045C176.784 108.609 176.771 108.236 176.648 107.871C176.648 107.871 176.577 107.688 176.578 107.679ZM122.362 61.4106C122.99 79.2825 132.296 84.7866 135.713 102.069C137.198 85.2117 138.029 78.7242 138.209 61.8022C135.285 66.7259 127.025 66.3307 123.249 62.5483C122.917 62.203 122.616 61.8192 122.362 61.4106Z" fill="black"/>
<path fill-rule="evenodd" clip-rule="evenodd" d="M147.615 34.8573C148.595 34.1545 147.134 31.8423 146.637 31.1543C146.206 30.2568 145.774 29.3592 145.342 28.4616C145.394 27.7255 144.674 27.0706 143.963 27.2946C143.344 26.8514 142.308 27.0636 141.993 27.7574C135.151 24.7817 123.312 26.0196 122.7 35.202C121.376 37.8164 120.065 40.4532 118.89 43.1382C117.261 43.2256 116.471 45.2021 117.441 46.4795C117.57 48.5537 118.887 48.7179 120.645 48.6256C121.351 48.8113 122.083 48.9119 122.613 49.4563C123.015 49.867 123.289 50.3877 123.553 50.893C124.771 53.2241 126.319 55.2406 128.417 56.8532C131.679 59.2914 136.096 61.0419 140.164 59.855C148.911 56.4252 150.628 42.718 147.615 34.8573V34.8573Z" fill="white"/>
<path fill-rule="evenodd" clip-rule="evenodd" d="M129.362 21.4995C135.076 20.1742 141.496 21.9527 145.462 26.3344C145.741 26.6423 145.711 27.043 145.465 27.3028C145.58 27.3956 145.692 27.4911 145.805 27.5866C145.924 27.6872 145.907 27.8893 145.805 27.9916C145.705 28.0922 145.495 28.1129 145.4 27.9916L145.258 27.8138C145.188 27.7249 145.118 27.6357 145.051 27.5444C144.969 27.5745 144.889 27.6063 144.809 27.6373C146.021 28.4414 147.031 29.5095 147.723 30.7952C148.473 32.1858 148.951 33.6702 149.261 35.2148C149.816 37.97 149.896 40.7958 149.822 43.5976L149.818 43.7477C149.722 47.1249 149.392 50.558 147.966 53.6635C146.822 56.1523 144.79 58.4408 142.242 59.5304C140.774 60.1573 139.196 60.4248 137.602 60.313C136.761 60.2545 135.924 60.1221 135.105 59.92L134.909 59.8712C134.163 59.6848 133.39 59.4687 132.754 59.0428C132.101 58.605 132.541 57.7356 133.261 57.8414C134.129 57.9695 134.955 58.3307 135.815 58.5182C136.656 58.7022 137.508 58.7985 138.37 58.7736C139.896 58.7306 141.285 58.2628 142.546 57.4131C147.366 54.1631 147.951 47.6289 148.077 42.3485C148.138 39.7685 148.044 37.1549 147.449 34.6343C146.878 32.2108 145.896 29.8243 144.505 27.7543C144.198 27.8686 143.892 27.9641 143.565 27.9942C142.983 28.3434 142.291 28.3527 141.619 28.3528L141.525 28.3528C140.825 28.352 140.125 28.3107 139.428 28.2479C136.962 28.0295 134.425 27.4756 131.946 27.8282L131.845 27.843C130.825 27.9963 129.56 28.3179 128.811 29.0511C128.001 29.8423 128.544 31.3396 129.184 31.8152C129.599 32.1231 129.728 32.8162 129.184 33.0957C128.111 33.6487 125.514 33.3417 125.222 33.6478C124.871 34.0138 124.896 34.5715 124.886 35.0465L124.885 35.078C124.849 36.4299 124.883 37.7776 124.997 39.126C125.107 40.4298 125.358 41.7361 125.414 43.0433C125.433 43.4742 124.912 43.6049 124.627 43.3684C124.571 43.322 124.513 43.2781 124.455 43.2386C123.938 42.8722 123.35 42.7174 122.718 42.6194C122.685 42.6141 122.659 42.5976 122.641 42.5757L122.633 42.566L122.566 42.6211C122.697 42.7836 122.809 42.9677 122.897 43.1741C122.915 43.2153 122.877 43.2678 122.831 43.2403C121.958 42.7217 121.007 42.5015 120.002 42.7114C119.098 42.8997 118.279 43.4725 118.014 44.3892C117.77 45.2329 117.95 46.2056 118.496 46.8996C119.305 47.9281 120.619 47.8353 121.797 47.8826C122.028 47.892 122.285 48.0038 122.393 48.224C122.519 48.4837 122.511 48.6609 122.393 48.9197C122.376 48.9567 122.355 48.9902 122.33 49.0203C122.43 49.1027 122.524 49.1929 122.616 49.2849L122.924 49.5943C123.134 49.8065 123.343 50.0205 123.545 50.2398C124.138 50.8848 124.695 51.5711 125.219 52.272L125.268 52.3374C125.882 53.1767 126.519 54.3885 127.584 54.6533C127.949 54.7445 128.289 54.9242 128.397 55.319C128.506 55.7137 128.25 56.0964 127.906 56.2615C127.31 56.5479 126.554 56.2074 126.062 55.8462C125.002 55.0661 124.309 53.7934 123.658 52.6731L123.479 52.3669C123.144 51.7889 122.816 51.204 122.537 50.5967C122.377 50.2501 122.206 49.9061 122.058 49.5544C122.015 49.4521 121.972 49.348 121.938 49.2414C121.891 49.2517 121.842 49.2586 121.797 49.2611C120.375 49.354 118.738 49.1287 117.71 48.0511C116.293 46.5659 116.127 43.9102 117.737 42.4929C117.907 42.3433 118.098 42.2117 118.304 42.0991C118.017 41.6132 117.826 41.0499 117.686 40.521C117.481 39.7487 117.367 38.9618 117.31 38.1654C117.195 36.5409 117.385 34.8871 117.776 33.309C119.194 27.5891 123.547 22.848 129.362 21.4995ZM119.064 45.2345C118.783 43.6049 122.048 44.81 122.76 44.9235L122.781 44.9266C123.598 45.0399 123.143 46.4705 122.339 46.0443L122.314 46.0309C121.879 45.782 121.401 45.6036 120.945 45.3929L120.848 45.3472C120.485 45.1734 119.287 44.3934 119.157 45.2345C119.15 45.2809 119.072 45.2801 119.064 45.2345Z" fill="black"/>
<path fill-rule="evenodd" clip-rule="evenodd" d="M137.27 48.3571C137.752 47.5657 138.779 49.5043 138.888 49.8377C138.985 50.133 139.049 50.4355 139.081 50.7414C139.455 50.825 139.842 50.8252 140.225 50.7519C140.794 50.643 141.142 50.3376 141.636 50.0754C141.978 49.8942 142.408 50.1067 142.585 50.4072C142.794 50.7608 142.661 51.1279 142.387 51.3916C141.866 51.8916 140.841 52.0064 140.161 51.8737C139.771 51.7976 139.414 51.6517 139.099 51.4397C139.096 51.4793 139.095 51.5188 139.092 51.5583L139.086 51.6269C139.034 52.1814 138.881 52.8787 138.45 53.2395C137.742 53.8314 136.869 52.6931 137.557 52.1019L137.578 52.0841C138.005 51.7394 138.098 50.8145 138.075 50.305C138.06 49.9725 138 49.6357 137.894 49.3191L137.873 49.256C137.841 49.1665 137.496 48.3179 137.371 48.426L137.365 48.4321C137.314 48.4934 137.231 48.422 137.27 48.3571ZM141.117 43.8916C141.767 44.2863 142.758 45.2068 142.059 46.1854C141.235 47.0483 140.05 46.0589 139.465 45.6115C138.923 45.2647 138.315 46.1566 138.817 46.5615C143.04 49.6829 144.753 43.9948 141.446 43.4274C141.082 43.3649 140.947 43.7694 141.117 43.8916ZM134.173 40.2429C134.808 40.1303 135.459 40.2881 135.985 40.6595L136.025 40.6881C136.532 41.0581 137.099 41.7079 136.808 42.3457C136.691 42.6018 136.342 42.642 136.12 42.5259C135.751 42.3326 135.684 41.8569 135.354 41.5937C135.084 41.3779 134.72 41.247 134.373 41.2786C133.555 41.3527 133.052 42.1577 132.798 42.8515C132.766 42.9403 132.635 42.9747 132.585 42.8795C131.986 41.7621 133.046 40.4426 134.173 40.2429ZM144.353 39.8212C145.571 39.721 146.996 40.9814 146.675 42.2647C146.522 42.8805 145.607 42.8629 145.444 42.2647C145.355 41.9356 145.364 41.6444 145.126 41.3711C144.931 41.1454 144.652 41.0144 144.353 41.0345C144.024 41.0567 143.719 41.2212 143.488 41.4525C143.28 41.6613 143.155 41.9668 142.939 42.1516C142.885 42.197 142.814 42.2 142.762 42.1516C142.39 41.8091 142.613 41.096 142.849 40.7384C143.187 40.2267 143.736 39.872 144.353 39.8212ZM131.854 37.9669C132.635 37.2765 134.054 36.6097 135.107 36.9495C135.713 37.1448 135.977 38.1191 135.301 38.4279C134.518 38.7855 133.616 38.64 132.819 39.0107C132.484 39.1664 132.17 39.361 131.937 39.6465C131.753 39.8714 131.567 40.1674 131.301 40.2971C131.231 40.3313 131.137 40.3321 131.081 40.2688C130.499 39.6116 131.346 38.4159 131.854 37.9669ZM143.011 36.9152C143.493 36.7799 144.029 36.7827 144.519 36.8677C145.01 36.9526 145.507 37.1555 145.908 37.4514L145.954 37.4861C146.391 37.8148 146.912 38.2932 146.884 38.8756C146.861 39.3619 146.349 39.6909 145.906 39.436C145.546 39.2281 145.376 38.8117 145.071 38.5344C144.819 38.3056 144.523 38.1251 144.207 37.9987C143.856 37.8583 143.505 37.7925 143.129 37.7862C142.839 37.7814 142.547 37.8764 142.263 37.9067C142.287 37.9547 142.062 37.9323 141.933 37.8898C141.837 37.8492 141.837 37.7287 141.87 37.6505C142.034 37.2633 142.631 37.0215 143.011 36.9152Z" fill="black"/>
</svg>
