<svg width="208" height="320" viewBox="0 0 208 320" fill="none" xmlns="http://www.w3.org/2000/svg">
<path fill-rule="evenodd" clip-rule="evenodd" d="M115.778 187.933C116.066 190.923 115.478 193.78 114.08 196.194L113.625 196.98L114.491 197.282C116.067 197.832 117.82 198.1 119.849 198.1C121.938 198.1 124.11 197.81 125.855 197.576L126.972 197.427L126.424 196.458C125.982 195.679 125.901 194.735 125.814 193.736C125.791 193.468 125.767 193.19 125.735 192.916C124.081 178.158 121.991 163.209 119.97 148.751C119.438 144.947 118.888 141.013 118.354 137.143L116.823 137.202C116.412 144.365 116.012 151.649 115.626 158.692C115.456 161.79 115.286 164.887 115.114 167.985C114.503 175.815 114.714 182.155 115.778 187.933M116.403 276.426C114.155 276.426 111.903 276.192 109.709 275.731C102.844 274.292 96.607 270.898 91.2999 267.829C91.029 267.676 90.754 267.522 90.4718 267.365C88.394 266.204 85.8083 264.76 84.1879 262.998C82.4102 261.066 82.1042 259.14 83.2252 256.938L83.4025 256.59L83.2172 256.245C82.0565 254.088 82.1428 251.42 83.427 249.756L84.5063 248.358L82.7318 248.546C80.9426 248.736 79.1393 248.992 77.3952 249.241C75.4602 249.516 73.459 249.801 71.4882 249.992L70.9405 250.045L70.8146 250.572C70.7444 250.865 70.6579 251.043 70.0499 251.043C69.5227 251.043 68.8142 250.889 68.0644 250.726C67.1337 250.524 66.0788 250.294 65.0616 250.294C64.6142 250.294 64.2118 250.337 63.8311 250.425L63.6097 250.476L63.4521 250.637C63.3513 250.74 63.1797 250.804 63.0044 250.804C62.8718 250.804 62.7488 250.767 62.6666 250.703L62.4181 250.509L62.1027 250.543C56.6085 251.145 51.871 252.202 47.6198 253.774L47.6006 253.781L47.5084 253.821C45.9711 254.484 44.3819 255.168 42.9344 255.168C41.8763 255.168 41.0171 254.809 40.2302 254.038L40.0078 253.82L39.6942 253.817C36.5115 253.787 35.0573 250.082 34.8562 247.599L34.8309 247.286L34.5883 247.083C29.0416 242.435 25.7672 236.053 24.5773 227.57C23.4937 219.844 24.3257 211.697 25.2825 204.747C27.4958 186.736 29.8043 170.59 35.6723 155.276L35.9465 154.56L35.2159 154.298C32.6815 153.389 30.7445 152.304 29.2943 150.982L29.1939 150.89L29.0674 150.838C26.9889 149.985 25.9709 146.838 25.7084 145.894L25.6874 145.818L25.6507 145.748C25.2266 144.935 25.1288 143.806 25.3824 142.648L25.4096 142.523L25.3938 142.396C25.2569 141.297 25.7115 140.148 26.1928 138.931C26.4127 138.375 26.64 137.8 26.806 137.228C27.377 135.593 27.9472 133.928 28.4989 132.318C29.7367 128.707 31.0164 124.972 32.3797 121.339L32.5662 120.842L32.1554 120.499C31.4542 119.914 31.6884 119.226 32.6996 117.58C32.9385 117.192 33.1644 116.824 33.3363 116.461C34.6324 114.225 36.0215 112.079 37.4657 110.081L37.4955 110.04L37.5192 109.995C44.9301 96.1769 58.0756 88.5669 74.5341 88.5669L74.8695 88.5675L75.055 88.4561C78.1397 86.6042 80.3417 83.4265 81.7868 78.7417L81.833 78.5924L81.8152 78.4372C81.7657 78.0055 81.7114 77.4393 81.73 76.89C81.7771 75.4988 82.3233 74.2574 83.2284 73.4839C84.9456 72.0164 87.5526 71.8936 90.0758 71.8936L90.438 71.8942C93.6639 71.9034 95.9413 72.4626 97.6054 73.6542C99.5387 75.0387 100.607 77.2736 100.872 80.4866C100.951 81.448 100.948 82.444 100.946 83.4072L100.945 83.676L100.978 83.7827C101.21 84.5463 101.481 85.2801 101.785 85.9638L102.097 86.6671L102.808 86.35C103.267 86.145 103.85 86.0396 104.589 86.0277C104.802 86.0228 105.01 86.0205 105.22 86.0205C106.936 86.0205 108.772 86.1769 110.547 86.3282C111.885 86.4422 113.269 86.5601 114.608 86.6125L114.626 86.6132C114.626 86.6132 114.811 86.6121 114.894 86.6121C118.149 86.6121 120.508 87.1231 122.319 88.2204C124.269 89.4017 125.671 91.2976 126.731 94.1871C132.417 110.749 134.755 128.589 136.817 144.328C137.987 152.559 138.343 160.997 138.687 169.157C139.05 177.77 139.426 186.676 140.755 195.382L140.86 196.07L141.566 196.025C144.674 195.825 148.032 195.394 151.587 194.937C156.988 194.243 162.574 193.526 167.973 193.526C175.523 193.526 181.247 195.009 185.47 198.059C188.414 200.829 189.937 204.579 189.874 208.907C189.786 215.023 186.546 221.783 181.621 226.131L181.602 226.148C175.377 232.02 164.012 237.113 147.826 241.286C132.941 245.123 117.544 247.208 109.691 248.109L107.748 248.332L109.325 249.471C109.964 249.932 110.546 250.338 111.106 250.712L111.468 250.953L111.863 250.772C112.992 250.255 113.709 250.147 114.111 250.147C114.469 250.147 114.9 250.224 114.924 250.593C114.939 250.835 114.767 251.194 114.403 251.24L112.471 251.48L114.049 252.603C115.102 253.354 116.674 254.258 118.495 255.305C124.45 258.731 133.45 263.908 131.902 268.454L131.8 268.753L131.944 269.035C132.36 269.849 132.396 270.604 132.052 271.344C131.318 272.931 129.019 274.135 127.067 274.625L127.033 274.634L127.001 274.645C123.604 275.827 120.038 276.426 116.403 276.426" fill="white"/>
<mask id="mask0_504_2549" style="mask-type:luminance" maskUnits="userSpaceOnUse" x="23" y="74" width="168" height="204">
<path fill-rule="evenodd" clip-rule="evenodd" d="M23.1682 74.8389H190.514V277.13H23.1682V74.8389Z" fill="white"/>
</mask>
<g mask="url(#mask0_504_2549)">
<path fill-rule="evenodd" clip-rule="evenodd" d="M127.682 197.235C128.081 195.063 127.324 192.82 127.193 190.634C125.213 175.035 123.027 159.447 120.13 143.985C119.419 140.285 118.701 136.6 117.878 132.92C118.002 130.691 118.111 128.463 118.183 126.233C122.204 123.709 126.737 122.076 131.425 121.253C132.692 128.3 133.958 135.342 134.837 142.453C137.574 160.053 136.012 177.961 138.668 195.541C134.984 195.953 131.328 196.564 127.682 197.235M134.754 210.946C131.983 211.681 129.21 212.385 126.417 213.034C121.447 214.189 116.479 215.349 111.521 216.556C109.047 217.158 106.567 217.742 104.098 218.364C102.927 218.66 101.762 218.988 100.616 219.368C100.044 219.557 99.4843 219.775 98.9252 219.998C98.4353 220.194 97.9731 220.464 97.4345 220.425C97.4024 220.423 97.3824 220.392 97.3982 220.363C97.6799 219.846 98.2605 219.601 98.7731 219.339C99.3382 219.051 99.9271 218.803 100.516 218.567C101.826 218.043 103.189 217.657 104.549 217.283C109.492 215.925 114.477 214.709 119.458 213.491C124.462 212.268 129.466 211.097 134.536 210.17C135.047 210.077 135.268 210.809 134.754 210.946M110.211 252.764C110.432 252.705 110.655 252.65 110.877 252.599C114.432 255.554 131.174 263.227 129.901 267.81C129.45 268.38 128.373 268.51 127.692 268.694C126.506 269.014 125.308 269.292 124.099 269.511C120.19 270.221 116.142 270.345 112.238 269.535C110.802 269.317 109.505 268.705 108.197 268.114C103.97 266.257 99.3152 264.207 95.1088 262.365C89.7651 260.25 80.392 256.082 84.247 249.049C87.8993 253.15 92.5352 252.792 94.8704 247.694C95.6758 246.147 96.3784 244.061 98.27 243.435C99.2678 242.762 100.544 242.622 101.377 243.372C101.438 243.279 101.491 243.148 101.521 243.032C102.461 244.367 103.271 245.773 104.373 246.994C103.995 247.014 100.058 249.924 101.219 249.925C102.617 249.206 104.006 248.607 105.516 248.22C106.61 249.318 107.812 250.34 109.059 251.285C107.848 252.083 106.761 253.06 105.886 254.121C105.811 254.214 105.903 254.336 106.016 254.285C107.374 253.681 108.77 253.15 110.211 252.764M128.231 272.582C114.633 278.68 100.238 271.89 88.643 264.651C85.9668 263.159 82.4466 261.044 82.9876 257.531C84.9588 260.411 88.2083 262.05 91.3272 263.471C96.5671 265.836 101.841 268.125 107.094 270.461C107.59 272.104 109.963 272.167 111.397 272.532C117.779 273.768 124.64 273.153 130.647 270.689C130.299 271.717 129.162 272.189 128.231 272.582M73.98 248.838C73.6441 248.881 73.308 248.92 72.9721 248.958C73.0066 248.514 72.7387 248.07 72.3079 247.933C72.5015 246.992 72.5732 246.019 72.4694 245.065C73.0311 246.514 74.8443 246.074 75.996 245.656C77.6414 245.21 79.2764 244.729 80.9025 244.217C81.5437 245.406 82.2233 246.578 83.0582 247.655C80.0188 247.925 77.0079 248.461 73.98 248.838M72.6426 244.28C72.5618 244.45 72.4464 244.631 72.4438 244.835C72.3617 244.13 72.2014 243.434 71.9578 242.767C72.1859 243.271 72.4143 243.776 72.6426 244.28M70.7241 240.5C69.2287 238.554 66.4653 236.964 63.9107 237.506C63.7465 237.542 63.7426 237.805 63.9107 237.838C67.3423 238.303 70.356 241.021 70.4752 244.535C70.7458 246.125 69.6379 247.687 70.0111 249.213C69.9367 249.218 69.8624 249.221 69.7893 249.226C69.7623 249.329 69.7378 249.419 69.7058 249.499C70.0765 249.561 70.1854 250.156 69.7481 250.262C69.4892 250.325 69.2185 250.358 68.9429 250.372C67.5438 249.995 66.0677 249.907 64.7301 249.35C63.4068 248.766 63.7376 247.125 63.2707 245.989C62.9284 244.679 62.5346 243.373 62.0384 242.116C62.0025 242.015 61.8653 242.038 61.8538 242.14C61.5037 244.648 61.5152 247.2 61.5999 249.728C61.1408 249.775 60.6842 249.827 60.2263 249.884C60.2559 249.177 58.1335 240.572 57.0153 242.781C57.5782 245.208 57.6462 247.745 57.7065 250.243C54.3863 250.789 51.1148 251.603 47.932 252.71C45.6891 253.388 43.0216 255.396 40.8442 253.581C39.1578 252.189 38.5897 249.76 38.7487 247.693C40.9415 235.463 58.2618 234.034 68.4862 234.939C69.452 237.163 70.4356 239.38 71.432 241.593C71.2256 241.212 70.9896 240.846 70.7241 240.5M35.8517 247.455C35.6645 244.677 36.1324 241.221 38.1934 239.151C42.91 235.169 49.5144 233.917 55.4083 232.476C58.1538 231.935 60.9368 231.575 63.731 231.396C64.7224 231.318 65.9817 231.542 66.6818 230.733C67.0423 231.585 67.4076 232.436 67.7732 233.288C56.0393 231.753 31.5581 237.085 38.4138 253.133C36.9621 251.563 36.0003 249.651 35.8517 247.455M27.6598 196.049C27.9881 193.665 28.347 191.284 28.7266 188.907C30.2785 177.536 33.4857 166.469 35.3978 155.176C38.7076 156.25 42.0971 157.069 45.439 158.036C38.1973 170.06 32.2739 182.828 27.6598 196.049M54.8522 184.861C54.2154 181.839 53.5014 178.759 53.1768 175.687C53.1622 175.549 53.375 175.535 53.4129 175.656C53.9447 177.357 54.3071 179.121 54.7557 180.845C55.206 182.576 55.6245 184.314 56.0679 186.047C56.2094 186.6 56.3514 187.153 56.4935 187.706C56.5786 187.71 56.6635 187.713 56.7481 187.715C57.0728 187.722 57.1701 188.129 56.9089 188.298C56.8326 188.348 56.7561 188.391 56.6794 188.43C58.037 193.702 59.428 198.962 60.9461 204.194C62.7151 210.29 64.7066 216.313 66.2984 222.459C66.3352 222.601 66.2692 222.7 66.1728 222.743C67.0007 225.54 67.6945 228.373 68.4514 231.191C68.609 231.778 67.7411 232.158 67.4443 231.609C66.9874 230.762 66.8865 229.606 66.6628 228.677C66.4108 227.629 66.1714 226.58 65.9324 225.529C65.5521 223.859 65.211 222.168 64.9298 220.474C63.8818 217.846 62.9433 215.185 62.1129 212.475C60.253 206.405 58.5374 200.293 57.0103 194.133C56.5594 192.315 56.1175 190.494 55.6958 188.669C53.7761 188.699 51.7702 186.53 49.841 187.685C49.7518 187.738 49.6614 187.617 49.7317 187.545C50.5007 186.767 51.5637 186.7 52.5964 186.892C53.2675 187.017 53.9109 187.255 54.5678 187.433C54.8573 187.512 55.1544 187.57 55.4548 187.613C55.2476 186.697 55.0458 185.78 54.8522 184.861M96.2118 242.077C95.2308 242.718 94.4305 243.665 93.8663 244.682C90.2498 254.129 86.3822 249.069 81.5769 244C85.6434 242.468 91.0295 241.32 94.1484 238.274C94.6883 239.621 95.3487 240.904 96.2118 242.077M94.918 219.035C94.6039 217.481 94.3452 215.917 94.1097 214.35C93.8838 212.847 93.5307 211.237 93.5883 209.715C93.5905 209.654 93.6761 209.644 93.6946 209.701C94.1834 211.218 94.3299 212.895 94.64 214.457C94.9399 215.968 95.2695 217.472 95.6015 218.976C96.2833 222.063 97.2472 225.103 97.8307 228.208C97.8933 228.541 97.4431 228.658 97.3207 228.346C96.1523 225.377 95.5469 222.149 94.918 219.035M28.7767 149.008C27.1969 147.31 25.9554 145.14 26.1953 142.839C27.1443 141.575 27.4585 139.927 28.0112 138.466C30.172 132.355 32.1777 126.196 34.5295 120.15C39.5323 121.686 44.454 123.529 49.0964 125.949C49.9504 126.384 50.7956 126.836 51.6305 127.304C52.5051 127.793 53.4592 128.643 54.508 128.4C53.3617 130.02 51.0008 131.706 50.6018 133.579C50.5161 134.172 50.9367 134.722 51.583 134.589C61.6998 141.764 72.1476 148.788 81.7103 156.78C88.8713 162.44 94.3689 167.031 96.8249 176.215C98.4804 182.163 98.4854 188.381 98.2419 194.498C98.1945 195.687 98.1932 196.904 98.097 198.101C98.2406 198.996 97.9675 200.819 96.9595 200.852C96.9825 201.068 97.0544 201.269 97.1685 201.446C97.1365 201.488 97.1031 201.529 97.0685 201.57C97.0185 201.326 96.9698 201.082 96.9235 200.838C96.1388 197.367 96.0336 193.34 96.1643 189.645C96.2194 188.585 94.5922 188.611 94.5011 189.645C94.2562 192.438 94.0111 195.232 93.7663 198.024C93.4725 199.834 93.9356 202.201 92.4865 203.577C91.013 202.217 91.5002 199.536 91.5721 197.782C91.6874 194.92 91.8119 192.06 91.9184 189.198C91.9517 188.292 90.4473 188.058 90.2768 188.98C89.7934 191.608 89.2702 194.229 88.7071 196.842C88.3674 197.852 88.1339 202.385 86.4361 201.598C85.4242 200.908 86.154 196.864 86.0206 195.524C86.0835 192.873 86.1205 190.226 86.3156 187.581C86.3951 186.515 84.6547 186.288 84.4163 187.329C84.0291 189.015 83.6584 190.702 83.3225 192.399C82.5851 195.261 82.8531 199.14 80.1908 201.042C79.1482 193.609 80.6485 186.227 80.859 178.82C80.7332 176.42 80.3203 174.044 79.9561 171.673C79.5535 169.051 79.3188 166.197 80.2614 163.668C80.0036 162.536 78.9905 165.599 78.8955 165.854C78.1326 164.353 76.2744 164.237 74.8047 163.769C71.5385 162.714 68.1925 161.918 64.8879 160.98C56.1239 158.549 47.3497 156.157 38.573 153.769C35.067 152.801 31.3762 151.654 28.7767 149.008M116.538 188.548C115.329 182.003 115.362 175.372 115.879 168.756C116.447 158.495 116.998 148.232 117.588 137.972C120.149 156.541 122.879 175.09 124.967 193.718C125.116 195.015 125.093 196.387 125.748 197.544C122.127 198.028 118.266 198.516 114.745 197.286C116.29 194.619 116.835 191.582 116.538 188.548M37.9342 112.668C44.0386 100.156 56.4854 91.2732 70.4445 89.336C70.4599 89.3511 70.4765 89.3663 70.4919 89.3827C70.4458 89.4243 70.4035 89.4697 70.365 89.5163C70.7406 89.2401 71.2561 89.587 71.0895 89.969C71.296 90.4395 71.4485 90.9238 71.6396 91.398C71.7205 91.3904 71.8026 91.3829 71.8845 91.3703C72.7129 93.0123 73.1618 94.9053 74.0274 96.5423C78.7647 104.737 90.4551 108.064 99.2241 104.756C106.182 101.746 107.17 93.1737 106.547 86.5841C106.514 86.1402 106.289 85.8261 105.987 85.6407C109.782 86.2474 113.577 86.859 117.375 87.4354C119.205 87.7129 121.085 88.1139 122.498 89.3688C128.06 95.0832 129.053 110.461 130.924 118.455C126.447 118.923 121.443 121.471 118.234 124.559C118.386 121.048 118.169 117.555 117.764 114.069C117.757 113.899 117.473 113.841 117.446 114.027C116.644 117.561 116.027 121.125 115.774 124.746C114.718 139.316 114.091 153.916 113.187 168.496C112.878 173.862 112.492 179.275 113.257 184.623C115.722 195.632 111.376 201.034 99.7115 199.204C101.128 185.253 100.101 169.291 88.3994 159.617C88.0428 159.3 87.6146 159.321 87.2901 159.51C77.776 151.439 67.7348 143.963 57.0472 137.452C57.1242 136.107 53.7527 134.917 52.8088 133.989C56.3136 130.365 58.9824 125.958 61.3098 121.526C61.5151 121.044 64.1914 116.196 63.3399 116.502C60.7969 120.264 58.2681 124.05 55.2737 127.493C55.4365 125.905 51.3162 124.84 50.0479 124.115C45.1477 122.055 40.0246 120.442 34.745 119.607C35.6953 117.245 36.734 114.918 37.9342 112.668M103.142 87.1478C102.982 86.8742 102.829 86.5942 102.683 86.3104C103.178 86.3293 103.66 86.347 104.147 86.4277C104.126 87.2109 104.169 88.0004 104.178 88.7899C103.934 88.2123 103.457 87.6851 103.142 87.1478M185.834 197.439C174.14 188.949 154.932 194.358 141.384 195.231C138.802 178.322 139.856 161.137 137.449 144.201C135.231 127.281 132.894 110.125 127.325 93.9141C125.027 87.6461 121.052 85.7846 114.507 85.835C111.185 85.7051 107.673 85.1742 104.445 85.2499C103.737 85.2612 102.997 85.3545 102.358 85.6396C101.461 83.6192 100.973 81.4499 100.727 79.2643C100.712 79.1256 100.535 79.1004 100.482 79.2328C99.7229 81.1359 99.6423 83.2131 100.055 85.2057C100.354 86.6334 102.133 92.2519 104.199 90.0537C104.363 94.6633 103.348 100.168 98.8252 102.561C90.9219 106.001 79.997 102.868 75.419 95.5663C74.5341 94.1071 73.771 92.5545 72.7913 91.1534C79.6176 89.2238 83.4492 81.0577 81.8412 74.8389C80.8474 79.6755 79.0352 85.0796 74.5226 87.7886C58.0898 87.752 44.4272 95.2245 36.7071 109.617C35.1964 111.707 33.7999 113.879 32.5199 116.088C31.8313 117.566 29.8142 119.622 31.5261 121.05C29.5488 126.319 27.7944 131.661 25.9401 136.972C25.4308 138.741 24.2664 140.598 24.4987 142.458C24.2473 143.604 24.2588 144.96 24.8346 146.062C25.3809 148.027 26.6068 150.671 28.6395 151.504C30.3644 153.077 32.5457 154.16 34.8207 154.976C28.7535 170.807 26.4441 187.879 24.3884 204.605C22.3736 219.237 21.3337 237.036 33.9575 247.611C34.2026 250.637 36.0004 254.492 39.5553 254.525C42.0174 256.938 45.0182 255.614 47.7589 254.434C52.3845 252.724 57.2358 251.775 62.0564 251.247C62.5732 251.651 63.4144 251.584 63.8747 251.113C66.7948 250.441 70.842 253.163 71.432 250.697C75.197 250.333 78.9211 249.649 82.6825 249.25C81.0973 251.304 81.2116 254.332 82.4054 256.55C79.3648 262.522 86.4476 265.98 90.7782 268.43C96.6246 271.81 102.73 275.018 109.417 276.419C115.295 277.653 121.453 277.279 127.125 275.306C130.106 274.558 134.268 272.103 132.5 268.644C134.742 262.06 118.999 255.239 114.368 251.942C116.261 251.706 116.33 247.784 111.407 250.037C110.812 249.64 110.227 249.23 109.649 248.813C129.562 246.528 167.592 240.241 182.003 226.65C189.921 219.662 194.489 205.527 185.834 197.439" fill="black"/>
</g>
<path fill-rule="evenodd" clip-rule="evenodd" d="M94.1028 33.9585C101.222 33.9585 110.411 38.4178 111.195 42.9851C112.119 48.3674 117.064 69.0201 115.947 75.6431C114.83 82.2661 108.813 87.0338 99.1839 87.0338C89.5549 87.0338 82.368 81.7903 80.7178 79.9899C79.0676 78.1895 76.0094 71.7616 76.0094 71.7616C76.0094 71.7616 70.8539 71.0769 70.8295 66.8804C70.805 62.6838 74.1814 61.157 74.1814 61.157C74.1814 61.157 72.9775 44.5956 76.0094 40.2838C79.0413 35.9721 86.9837 33.9585 94.1028 33.9585Z" fill="white"/>
<path fill-rule="evenodd" clip-rule="evenodd" d="M110.759 42.2483C110.754 42.152 110.895 42.1407 110.921 42.2259C112.457 47.2927 113.404 51.2414 114.4 56.4361L114.695 57.9642C115.481 62.0398 116.276 66.1214 116.947 70.2168L116.986 70.4613C117.322 72.5813 117.516 74.7219 117.095 76.8462C116.701 78.8318 115.625 80.6523 114.229 82.1021C111.529 84.9042 107.778 86.6543 104.004 87.4368C102.096 87.8325 100.127 87.9852 98.1827 87.8475C97.2134 87.7798 96.2456 87.6433 95.2964 87.4418L95.1917 87.4195C94.235 87.2132 93.3859 86.9672 92.8777 86.0683C92.75 85.8418 92.8014 85.4537 93.0697 85.3372C93.5762 85.1193 93.9486 85.028 94.5014 85.0906C95.0293 85.1506 95.5447 85.3097 96.0663 85.4086C97.063 85.5977 98.0761 85.6927 99.0904 85.7153C101.083 85.7592 103.08 85.51 104.985 84.9166C108.257 83.8962 111.582 81.9443 113.494 79.0247C115.743 75.5901 114.848 71.4217 114.252 67.6286L114.234 67.5138C113.63 63.6368 113.034 59.7598 112.455 55.8803L112.207 54.2175C111.558 49.8243 110.945 46.688 110.759 42.2483ZM77.535 31.495C79.1682 30.4201 81.1978 30.1559 83.1161 30.1707L83.3563 30.1738C85.8126 30.2112 98.1772 30.505 102.317 30.5954L103.302 30.6161C104.605 30.6407 107.234 30.6663 108.589 30.691L108.667 30.6925C109.331 30.705 109.996 30.71 110.66 30.7313L110.758 30.7348C111.255 30.756 111.67 30.8304 112.059 31.1808C112.258 31.3583 112.335 31.6292 112.317 31.8871L112.314 31.9207L113.301 32.0071C113.971 32.0662 114.325 32.6663 114.059 33.2735L114.045 33.3029C113.573 34.3095 113.212 37.2392 112.958 38.3222C112.826 38.8918 112.719 39.4702 112.656 40.0524C112.606 40.5108 112.601 40.9701 112.345 41.3733C111.8 42.2334 110.265 42.2259 110.238 41.0077C110.236 40.9689 110.238 40.9313 110.241 40.895C106.38 40.726 101.108 40.7423 97.2509 40.9726C93.6488 41.188 90.0629 41.6763 86.5335 42.4237C85.6395 42.6128 84.7481 42.8193 83.8629 43.0435C83.1369 43.2262 82.2455 43.3352 81.596 43.727C80.8688 44.1678 80.8826 44.9578 80.9616 45.7102C81.0464 46.5077 81.1878 46.0968 81.3881 46.8236L81.4004 46.8696C81.6073 47.6583 81.8631 48.4383 82.2016 49.1795C82.3947 49.6027 82.7058 50.0096 82.5878 50.4966C82.5213 50.7708 82.3043 51.0638 82.1051 51.2553C81.1972 52.1255 79.6627 51.5708 79.0458 52.7627C78.4002 54.0091 78.3842 55.6974 78.3294 57.0765L78.3261 57.1573C78.2861 58.1075 78.2973 59.0603 78.36 60.0081C78.4164 60.8718 78.647 61.7271 78.3512 62.5571C78.1354 63.1606 77.4309 63.2169 77.0623 62.7262C77.02 62.6698 76.9812 62.6121 76.9449 62.554L76.9093 62.4958L76.907 62.497C76.9419 62.5521 76.9745 62.6086 77.0059 62.6661C77.0397 62.7299 76.9557 62.8 76.9043 62.7449C76.0367 61.8022 74.7691 61.99 73.7874 62.6498C72.7931 63.3209 72.4007 64.5954 72.3493 65.7386C72.2916 67.0066 72.4045 68.493 72.9336 69.6647C73.1567 70.1605 73.4751 70.6163 74.0031 70.8053C74.2427 70.8904 74.4707 70.8792 74.7202 70.8992C74.9796 70.9191 75.292 71.0494 75.5438 71.0319C75.8713 71.0086 76.1653 71.382 76.0723 71.6948L76.0655 71.7155C76.0607 71.7305 76.0555 71.7456 76.0506 71.7593C76.063 71.7706 76.0756 71.7844 76.0844 71.8044C77.0372 73.7488 78.3437 75.479 79.7881 77.0841C80.5116 77.8866 81.3139 78.624 82.1527 79.3064C82.5665 79.6432 83.0028 79.9801 83.4629 80.2516C83.6159 80.3404 83.7562 80.4006 83.9282 80.4496C84.0083 80.472 84.0999 80.4833 84.1776 80.5096L84.2583 80.5372C84.2639 80.539 84.2691 80.5406 84.2741 80.5421C84.5048 80.5684 84.6992 80.7211 84.7757 80.9603C84.975 81.5838 84.6127 82.1347 83.9933 82.3062C83.3222 82.4936 82.6898 82.1646 82.1579 81.7868L82.1226 81.7616C81.0381 80.9817 80.0388 80.1064 79.1737 79.0848C77.4623 77.0678 76.3902 74.7328 75.8939 72.15C75.7709 72.4141 75.6054 72.6445 75.3183 72.8048C74.8719 73.0552 74.3391 73.0552 73.8501 72.9713C72.8659 72.8048 72.0271 72.205 71.4666 71.3937C70.8847 70.5524 70.668 69.5308 70.5363 68.5354C70.4059 67.5387 70.342 66.5385 70.4724 65.5394C70.6593 64.1046 71.2623 62.6861 72.4346 61.8998C71.5569 59.9905 71.4027 57.8496 71.4654 55.7588C71.5419 53.1847 71.9869 50.5818 72.3292 48.0314L73.3023 40.7811V40.7811L73.3421 40.4888C73.5769 38.7832 73.8628 37.0685 74.5021 35.4613C75.1327 33.8776 76.0906 32.4453 77.535 31.495ZM73.4403 65.7947C75.0477 65.016 76.7842 65.7334 77.6493 67.2445C78.4015 68.5584 76.165 69.4268 75.7919 68.0725L75.7811 68.0308C75.5354 67.0054 74.5347 66.119 73.4904 65.9813C73.4039 65.9689 73.3399 65.8437 73.4403 65.7947Z" fill="black"/>
<path fill-rule="evenodd" clip-rule="evenodd" d="M105.108 65.8979C106.055 66.4726 107.497 67.8126 106.479 69.2373C105.28 70.4935 103.554 69.0532 102.703 68.4018C101.914 67.897 101.028 69.1954 101.76 69.7849C107.907 74.329 110.401 66.0482 105.587 65.2223C105.057 65.1312 104.86 65.7202 105.108 65.8979ZM96.5538 54.9383L96.7892 54.8972L96.9098 54.8768C97.6149 54.7603 98.4508 54.6825 98.9379 55.2352C99.2111 55.5452 99.3051 56.1213 98.9379 56.4181C98.2919 56.9401 97.5777 56.7378 96.8036 56.782C96.1657 56.8186 95.5526 56.924 94.9381 57.0994C93.59 57.4841 92.4916 58.1865 91.3402 58.9577C91.1892 59.0589 91.0349 58.866 91.107 58.7249C91.7717 57.4249 93.0597 56.3571 94.3498 55.7062C95.0384 55.3587 95.792 55.0705 96.5538 54.9383ZM102.79 72.8971C104.85 73.0464 109.315 72.0644 111.169 73.5375C118.156 82.2498 90.4556 84.4897 93.4471 74.8509C95.3525 71.7343 99.7352 72.987 102.79 72.8971ZM102.437 78.1566C101.927 78.1152 101.309 78.5182 101.159 78.8296C101.01 79.1411 101.067 79.7993 101.072 79.9133C101.963 80.003 102.861 80.0166 103.755 79.9581C103.523 79.1915 103.515 78.2727 102.437 78.1566ZM106.55 79.4427C106.407 78.4912 105.725 78.2658 105.173 78.4087C104.609 78.5546 104.278 79.2033 104.314 79.7808C104.316 79.8207 104.293 79.8545 104.278 79.8865C105.045 79.796 105.805 79.647 106.55 79.4427ZM100.231 78.3289C99.9102 77.8409 99.1426 77.6054 98.651 77.6914C97.8482 77.8601 97.7532 78.8788 97.7532 79.0864C98.4933 79.3681 99.279 79.5551 100.03 79.7041C100.181 79.7339 100.332 79.7606 100.484 79.7857L100.494 79.662C100.512 79.397 100.526 78.7756 100.231 78.3289ZM109.312 78.2484C108.489 76.9767 106.72 77.8872 106.866 79.2764C107.023 79.2269 107.18 79.1752 107.336 79.121C107.982 78.8959 108.692 78.6284 109.312 78.2484ZM102.832 73.8669C101.725 73.7674 100.817 73.8009 100.094 73.9346L100.073 74.1755C99.9926 75.0107 99.8895 75.8319 100.329 76.1679C100.685 76.4409 101.869 76.4148 102.663 76.2173C102.859 76.1679 103.114 74.4357 102.832 73.8669ZM104.545 73.7673C104.367 74.5905 104.284 75.59 104.64 75.8868C105.016 76.2002 106.228 76.1578 106.544 75.949C106.822 75.7662 106.815 74.9257 106.712 73.9819C106.098 73.8376 105.03 73.7673 104.545 73.7673ZM99.6047 73.9429L99.2421 73.9461L99.0369 73.9489C98.5179 73.9581 97.958 73.9879 97.4287 74.1033C96.3773 76.3722 100.217 76.7639 99.624 74.0268L99.6047 73.9429ZM107.2 73.9976L107.193 74.1261C107.162 74.7635 107.183 75.6028 107.536 75.8294C108.057 76.1628 109.034 76.0985 109.563 74.5562C109.388 74.0961 107.53 74.0312 107.2 73.9976ZM97.0097 60.4684C97.232 60.4684 97.4446 60.5437 97.6383 60.6832C97.8289 60.8204 98.0014 61.0207 98.1451 61.2705C98.417 61.7432 98.587 62.3959 98.587 63.1176C98.587 63.8393 98.417 64.492 98.1451 64.9647C98.0014 65.2145 97.8289 65.4148 97.6383 65.5521C97.4446 65.6915 97.232 65.7668 97.0097 65.7668C96.7873 65.7668 96.5747 65.6915 96.381 65.5521C96.1904 65.4148 96.0179 65.2145 95.8742 64.9647C95.6023 64.492 95.4323 63.8393 95.4323 63.1176C95.4323 62.3959 95.6023 61.7432 95.8742 61.2705C96.0179 61.0207 96.1904 60.8204 96.381 60.6832C96.5747 60.5437 96.7873 60.4684 97.0097 60.4684ZM111.082 60.4684C111.305 60.4684 111.517 60.5437 111.711 60.6832C111.901 60.8204 112.074 61.0207 112.218 61.2705C112.49 61.7432 112.66 62.3959 112.66 63.1176C112.66 63.8393 112.49 64.492 112.218 64.9647C112.074 65.2145 111.901 65.4148 111.711 65.5521C111.517 65.6915 111.305 65.7668 111.082 65.7668C110.86 65.7668 110.647 65.6915 110.454 65.5521C110.263 65.4148 110.091 65.2145 109.947 64.9647C109.675 64.492 109.505 63.8393 109.505 63.1176C109.505 62.3959 109.675 61.7432 109.947 61.2705C110.091 61.0207 110.263 60.8204 110.454 60.6832C110.647 60.5437 110.86 60.4684 111.082 60.4684ZM109.168 54.356L109.348 54.3929L109.467 54.4182C111.411 54.8356 113.874 55.6584 114.784 57.5426C114.819 57.8145 114.782 57.8728 114.752 57.9108L114.742 57.9235C114.716 57.956 114.696 58.0008 114.578 58.0379C114.546 58.0301 114.513 58.0218 114.479 58.0131C114.054 57.9017 113.717 57.7483 113.391 57.5891L113.037 57.4152C112.627 57.2144 112.214 57.0209 111.775 56.8781C110.84 56.5734 109.877 56.3587 108.9 56.2441C108.688 56.2193 108.484 56.1479 108.323 56.0256C108.171 55.9094 108.054 55.7487 108.001 55.5349C107.932 55.2584 107.952 55.049 108.1 54.7995C108.212 54.6121 108.372 54.4822 108.556 54.4076C108.743 54.3316 108.956 54.3137 109.168 54.356Z" fill="black"/>
</svg>
